<mxfile host="app.diagrams.net" modified="2022-04-28T20:56:22.094Z" agent="5.0 (Windows NT 10.0; Win64; x64) AppleWebKit/537.36 (KHTML, like Gecko) Chrome/100.0.4896.127 Safari/537.36" etag="qkh2ORPYTxIXzruXLHet" version="17.4.6" type="github">
  <diagram id="cFhJmOFpdAVOt9QFkHv0" name="Page-1">
    <mxGraphModel dx="2249" dy="1931" grid="1" gridSize="10" guides="1" tooltips="1" connect="1" arrows="1" fold="1" page="1" pageScale="1" pageWidth="827" pageHeight="1169" math="0" shadow="0">
      <root>
        <mxCell id="0" />
        <mxCell id="1" parent="0" />
        <mxCell id="qKqS4N5rRysT0K1ulYNM-6" style="edgeStyle=orthogonalEdgeStyle;rounded=0;orthogonalLoop=1;jettySize=auto;html=1;" parent="1" source="qKqS4N5rRysT0K1ulYNM-1" target="qKqS4N5rRysT0K1ulYNM-4" edge="1">
          <mxGeometry relative="1" as="geometry" />
        </mxCell>
        <mxCell id="qKqS4N5rRysT0K1ulYNM-1" value="Старт чата" style="ellipse;whiteSpace=wrap;html=1;" parent="1" vertex="1">
          <mxGeometry x="340" y="-10" width="120" height="80" as="geometry" />
        </mxCell>
        <mxCell id="qKqS4N5rRysT0K1ulYNM-9" value="" style="edgeStyle=orthogonalEdgeStyle;rounded=0;orthogonalLoop=1;jettySize=auto;html=1;" parent="1" source="qKqS4N5rRysT0K1ulYNM-2" target="qKqS4N5rRysT0K1ulYNM-8" edge="1">
          <mxGeometry relative="1" as="geometry" />
        </mxCell>
        <mxCell id="qKqS4N5rRysT0K1ulYNM-10" value="Новый участник" style="edgeLabel;html=1;align=center;verticalAlign=middle;resizable=0;points=[];" parent="qKqS4N5rRysT0K1ulYNM-9" vertex="1" connectable="0">
          <mxGeometry x="-0.2824" y="3" relative="1" as="geometry">
            <mxPoint x="-29" y="-18" as="offset" />
          </mxGeometry>
        </mxCell>
        <mxCell id="qKqS4N5rRysT0K1ulYNM-12" value="" style="edgeStyle=orthogonalEdgeStyle;rounded=0;orthogonalLoop=1;jettySize=auto;html=1;exitX=0.5;exitY=1;exitDx=0;exitDy=0;" parent="1" source="qKqS4N5rRysT0K1ulYNM-2" target="qKqS4N5rRysT0K1ulYNM-11" edge="1">
          <mxGeometry relative="1" as="geometry" />
        </mxCell>
        <mxCell id="qKqS4N5rRysT0K1ulYNM-13" value="Участник" style="edgeLabel;html=1;align=center;verticalAlign=middle;resizable=0;points=[];" parent="qKqS4N5rRysT0K1ulYNM-12" vertex="1" connectable="0">
          <mxGeometry x="-0.4113" relative="1" as="geometry">
            <mxPoint x="-8" y="-12" as="offset" />
          </mxGeometry>
        </mxCell>
        <mxCell id="qKqS4N5rRysT0K1ulYNM-15" value="" style="edgeStyle=orthogonalEdgeStyle;rounded=0;orthogonalLoop=1;jettySize=auto;html=1;exitX=0.5;exitY=1;exitDx=0;exitDy=0;entryX=0;entryY=0.5;entryDx=0;entryDy=0;" parent="1" source="qKqS4N5rRysT0K1ulYNM-2" target="qKqS4N5rRysT0K1ulYNM-14" edge="1">
          <mxGeometry relative="1" as="geometry">
            <mxPoint x="530" y="305" as="sourcePoint" />
          </mxGeometry>
        </mxCell>
        <mxCell id="qKqS4N5rRysT0K1ulYNM-16" value="Тренер" style="edgeLabel;html=1;align=center;verticalAlign=middle;resizable=0;points=[];" parent="qKqS4N5rRysT0K1ulYNM-15" vertex="1" connectable="0">
          <mxGeometry x="0.1574" relative="1" as="geometry">
            <mxPoint as="offset" />
          </mxGeometry>
        </mxCell>
        <mxCell id="qKqS4N5rRysT0K1ulYNM-18" value="" style="edgeStyle=orthogonalEdgeStyle;rounded=0;orthogonalLoop=1;jettySize=auto;html=1;" parent="1" source="qKqS4N5rRysT0K1ulYNM-2" target="qKqS4N5rRysT0K1ulYNM-17" edge="1">
          <mxGeometry relative="1" as="geometry" />
        </mxCell>
        <mxCell id="qKqS4N5rRysT0K1ulYNM-19" value="Администратор" style="edgeLabel;html=1;align=center;verticalAlign=middle;resizable=0;points=[];" parent="qKqS4N5rRysT0K1ulYNM-18" vertex="1" connectable="0">
          <mxGeometry x="-0.3104" y="-1" relative="1" as="geometry">
            <mxPoint as="offset" />
          </mxGeometry>
        </mxCell>
        <mxCell id="qKqS4N5rRysT0K1ulYNM-2" value="роль" style="rhombus;whiteSpace=wrap;html=1;" parent="1" vertex="1">
          <mxGeometry x="360" y="200" width="80" height="50" as="geometry" />
        </mxCell>
        <mxCell id="qKqS4N5rRysT0K1ulYNM-3" value="Участники" style="shape=cylinder3;whiteSpace=wrap;html=1;boundedLbl=1;backgroundOutline=1;size=15;" parent="1" vertex="1">
          <mxGeometry x="830" y="105" width="130" height="80" as="geometry" />
        </mxCell>
        <mxCell id="qKqS4N5rRysT0K1ulYNM-5" style="edgeStyle=orthogonalEdgeStyle;rounded=0;orthogonalLoop=1;jettySize=auto;html=1;" parent="1" source="qKqS4N5rRysT0K1ulYNM-4" target="qKqS4N5rRysT0K1ulYNM-3" edge="1">
          <mxGeometry relative="1" as="geometry" />
        </mxCell>
        <mxCell id="qKqS4N5rRysT0K1ulYNM-7" style="edgeStyle=orthogonalEdgeStyle;rounded=0;orthogonalLoop=1;jettySize=auto;html=1;" parent="1" source="qKqS4N5rRysT0K1ulYNM-4" target="qKqS4N5rRysT0K1ulYNM-2" edge="1">
          <mxGeometry relative="1" as="geometry" />
        </mxCell>
        <mxCell id="qKqS4N5rRysT0K1ulYNM-4" value="&lt;span&gt;проверка ID участника&lt;/span&gt;" style="shape=process;whiteSpace=wrap;html=1;backgroundOutline=1;" parent="1" vertex="1">
          <mxGeometry x="340" y="100" width="120" height="60" as="geometry" />
        </mxCell>
        <mxCell id="qKqS4N5rRysT0K1ulYNM-8" value="Привет! Я бот для управления и отслеживания прогресса в тренировках стрельбе в тире. Ты можешь зарегистрироваться в качестве участника (указать Имя, почтовый адрес, стрелковый клуб, при наличии). Заявки на регистрацию рассматриваются тренером в течении суток." style="whiteSpace=wrap;html=1;verticalAlign=top;" parent="1" vertex="1">
          <mxGeometry x="-60" y="120" width="220" height="180" as="geometry" />
        </mxCell>
        <mxCell id="qKqS4N5rRysT0K1ulYNM-11" value="Привет, %UserName%!&amp;nbsp;&lt;br&gt;" style="whiteSpace=wrap;html=1;verticalAlign=top;" parent="1" vertex="1">
          <mxGeometry x="160" y="355" width="190" height="75" as="geometry" />
        </mxCell>
        <mxCell id="qKqS4N5rRysT0K1ulYNM-14" value="&lt;span&gt;Привет, %UserName%!&amp;nbsp;&lt;/span&gt;" style="whiteSpace=wrap;html=1;verticalAlign=top;" parent="1" vertex="1">
          <mxGeometry x="830" y="230" width="170" height="150" as="geometry" />
        </mxCell>
        <mxCell id="qKqS4N5rRysT0K1ulYNM-17" value="TBD" style="whiteSpace=wrap;html=1;" parent="1" vertex="1">
          <mxGeometry x="630" y="200" width="120" height="60" as="geometry" />
        </mxCell>
        <mxCell id="qKqS4N5rRysT0K1ulYNM-23" value="" style="edgeStyle=orthogonalEdgeStyle;rounded=0;orthogonalLoop=1;jettySize=auto;html=1;" parent="1" source="qKqS4N5rRysT0K1ulYNM-20" target="qKqS4N5rRysT0K1ulYNM-22" edge="1">
          <mxGeometry relative="1" as="geometry" />
        </mxCell>
        <mxCell id="qKqS4N5rRysT0K1ulYNM-20" value="Регистрация" style="rounded=0;whiteSpace=wrap;html=1;" parent="1" vertex="1">
          <mxGeometry x="-50" y="260" width="90" height="30" as="geometry" />
        </mxCell>
        <mxCell id="qKqS4N5rRysT0K1ulYNM-21" value="Вернуться" style="rounded=0;whiteSpace=wrap;html=1;" parent="1" vertex="1">
          <mxGeometry x="60" y="260" width="90" height="30" as="geometry" />
        </mxCell>
        <mxCell id="qKqS4N5rRysT0K1ulYNM-25" value="" style="edgeStyle=orthogonalEdgeStyle;rounded=0;orthogonalLoop=1;jettySize=auto;html=1;" parent="1" source="qKqS4N5rRysT0K1ulYNM-22" target="qKqS4N5rRysT0K1ulYNM-24" edge="1">
          <mxGeometry relative="1" as="geometry" />
        </mxCell>
        <mxCell id="qKqS4N5rRysT0K1ulYNM-22" value="Введите имя" style="whiteSpace=wrap;html=1;rounded=0;" parent="1" vertex="1">
          <mxGeometry x="-65" y="360" width="120" height="60" as="geometry" />
        </mxCell>
        <mxCell id="qKqS4N5rRysT0K1ulYNM-27" style="edgeStyle=orthogonalEdgeStyle;rounded=0;orthogonalLoop=1;jettySize=auto;html=1;" parent="1" source="qKqS4N5rRysT0K1ulYNM-24" target="qKqS4N5rRysT0K1ulYNM-26" edge="1">
          <mxGeometry relative="1" as="geometry" />
        </mxCell>
        <mxCell id="qKqS4N5rRysT0K1ulYNM-24" value="Введите почтовый адрес" style="whiteSpace=wrap;html=1;rounded=0;" parent="1" vertex="1">
          <mxGeometry x="-65" y="460" width="120" height="60" as="geometry" />
        </mxCell>
        <mxCell id="qKqS4N5rRysT0K1ulYNM-29" style="edgeStyle=orthogonalEdgeStyle;rounded=0;orthogonalLoop=1;jettySize=auto;html=1;" parent="1" source="qKqS4N5rRysT0K1ulYNM-26" target="qKqS4N5rRysT0K1ulYNM-28" edge="1">
          <mxGeometry relative="1" as="geometry" />
        </mxCell>
        <mxCell id="qKqS4N5rRysT0K1ulYNM-26" value="Проверка адреса по маске" style="shape=process;whiteSpace=wrap;html=1;backgroundOutline=1;" parent="1" vertex="1">
          <mxGeometry x="-65" y="555" width="120" height="60" as="geometry" />
        </mxCell>
        <mxCell id="qKqS4N5rRysT0K1ulYNM-30" style="edgeStyle=orthogonalEdgeStyle;rounded=0;orthogonalLoop=1;jettySize=auto;html=1;entryX=0;entryY=0.5;entryDx=0;entryDy=0;exitX=0;exitY=0.5;exitDx=0;exitDy=0;" parent="1" source="qKqS4N5rRysT0K1ulYNM-28" target="qKqS4N5rRysT0K1ulYNM-24" edge="1">
          <mxGeometry relative="1" as="geometry">
            <Array as="points">
              <mxPoint x="-170" y="680" />
              <mxPoint x="-170" y="490" />
            </Array>
          </mxGeometry>
        </mxCell>
        <mxCell id="qKqS4N5rRysT0K1ulYNM-31" value="Адрес не корректный" style="edgeLabel;html=1;align=center;verticalAlign=middle;resizable=0;points=[];" parent="qKqS4N5rRysT0K1ulYNM-30" vertex="1" connectable="0">
          <mxGeometry x="-0.1613" y="-3" relative="1" as="geometry">
            <mxPoint as="offset" />
          </mxGeometry>
        </mxCell>
        <mxCell id="qKqS4N5rRysT0K1ulYNM-34" value="" style="edgeStyle=orthogonalEdgeStyle;rounded=0;orthogonalLoop=1;jettySize=auto;html=1;" parent="1" source="qKqS4N5rRysT0K1ulYNM-28" target="qKqS4N5rRysT0K1ulYNM-33" edge="1">
          <mxGeometry relative="1" as="geometry" />
        </mxCell>
        <mxCell id="qKqS4N5rRysT0K1ulYNM-87" value="Да" style="edgeLabel;html=1;align=center;verticalAlign=middle;resizable=0;points=[];" parent="qKqS4N5rRysT0K1ulYNM-34" vertex="1" connectable="0">
          <mxGeometry x="-0.7278" relative="1" as="geometry">
            <mxPoint as="offset" />
          </mxGeometry>
        </mxCell>
        <mxCell id="qKqS4N5rRysT0K1ulYNM-28" value="Адрес корректный?" style="rhombus;whiteSpace=wrap;html=1;" parent="1" vertex="1">
          <mxGeometry x="-77.5" y="640" width="145" height="80" as="geometry" />
        </mxCell>
        <mxCell id="qKqS4N5rRysT0K1ulYNM-38" style="edgeStyle=orthogonalEdgeStyle;rounded=0;orthogonalLoop=1;jettySize=auto;html=1;" parent="1" source="qKqS4N5rRysT0K1ulYNM-33" target="qKqS4N5rRysT0K1ulYNM-37" edge="1">
          <mxGeometry relative="1" as="geometry" />
        </mxCell>
        <mxCell id="qKqS4N5rRysT0K1ulYNM-33" value="Ваша заявка принята. В течении суток Тренер рассмотрит вашу заявку." style="whiteSpace=wrap;html=1;" parent="1" vertex="1">
          <mxGeometry x="-65" y="750" width="120" height="80" as="geometry" />
        </mxCell>
        <mxCell id="qKqS4N5rRysT0K1ulYNM-37" value="Выход" style="ellipse;whiteSpace=wrap;html=1;aspect=fixed;" parent="1" vertex="1">
          <mxGeometry x="-190" y="755" width="70" height="70" as="geometry" />
        </mxCell>
        <mxCell id="qKqS4N5rRysT0K1ulYNM-42" value="" style="edgeStyle=orthogonalEdgeStyle;rounded=0;orthogonalLoop=1;jettySize=auto;html=1;" parent="1" source="qKqS4N5rRysT0K1ulYNM-39" target="qKqS4N5rRysT0K1ulYNM-41" edge="1">
          <mxGeometry relative="1" as="geometry" />
        </mxCell>
        <mxCell id="qKqS4N5rRysT0K1ulYNM-39" value="Статистика" style="rounded=0;whiteSpace=wrap;html=1;" parent="1" vertex="1">
          <mxGeometry x="170" y="385" width="70" height="30" as="geometry" />
        </mxCell>
        <mxCell id="qKqS4N5rRysT0K1ulYNM-76" style="edgeStyle=orthogonalEdgeStyle;rounded=0;orthogonalLoop=1;jettySize=auto;html=1;" parent="1" source="qKqS4N5rRysT0K1ulYNM-40" target="qKqS4N5rRysT0K1ulYNM-75" edge="1">
          <mxGeometry relative="1" as="geometry" />
        </mxCell>
        <mxCell id="qKqS4N5rRysT0K1ulYNM-40" value="Рассписание" style="rounded=0;whiteSpace=wrap;html=1;" parent="1" vertex="1">
          <mxGeometry x="250" y="385" width="90" height="30" as="geometry" />
        </mxCell>
        <mxCell id="qKqS4N5rRysT0K1ulYNM-41" value="" style="whiteSpace=wrap;html=1;rounded=0;" parent="1" vertex="1">
          <mxGeometry x="120" y="480" width="280" height="60" as="geometry" />
        </mxCell>
        <mxCell id="qKqS4N5rRysT0K1ulYNM-46" value="" style="edgeStyle=orthogonalEdgeStyle;rounded=0;orthogonalLoop=1;jettySize=auto;html=1;" parent="1" source="qKqS4N5rRysT0K1ulYNM-43" target="qKqS4N5rRysT0K1ulYNM-45" edge="1">
          <mxGeometry relative="1" as="geometry" />
        </mxCell>
        <mxCell id="qKqS4N5rRysT0K1ulYNM-43" value="Статистика за период" style="rounded=0;whiteSpace=wrap;html=1;" parent="1" vertex="1">
          <mxGeometry x="137.5" y="490" width="70" height="40" as="geometry" />
        </mxCell>
        <mxCell id="qKqS4N5rRysT0K1ulYNM-58" value="" style="edgeStyle=orthogonalEdgeStyle;rounded=0;orthogonalLoop=1;jettySize=auto;html=1;entryX=0.5;entryY=0;entryDx=0;entryDy=0;" parent="1" source="qKqS4N5rRysT0K1ulYNM-44" target="qKqS4N5rRysT0K1ulYNM-65" edge="1">
          <mxGeometry relative="1" as="geometry" />
        </mxCell>
        <mxCell id="qKqS4N5rRysT0K1ulYNM-44" value="Статистика за последние стренировки" style="rounded=0;whiteSpace=wrap;html=1;" parent="1" vertex="1">
          <mxGeometry x="290" y="490" width="100" height="40" as="geometry" />
        </mxCell>
        <mxCell id="qKqS4N5rRysT0K1ulYNM-48" value="" style="edgeStyle=orthogonalEdgeStyle;rounded=0;orthogonalLoop=1;jettySize=auto;html=1;" parent="1" source="qKqS4N5rRysT0K1ulYNM-45" target="qKqS4N5rRysT0K1ulYNM-47" edge="1">
          <mxGeometry relative="1" as="geometry" />
        </mxCell>
        <mxCell id="qKqS4N5rRysT0K1ulYNM-45" value="Укажите дату начала периода" style="whiteSpace=wrap;html=1;rounded=0;verticalAlign=top;" parent="1" vertex="1">
          <mxGeometry x="137.5" y="570" width="95" height="60" as="geometry" />
        </mxCell>
        <mxCell id="qKqS4N5rRysT0K1ulYNM-52" style="edgeStyle=orthogonalEdgeStyle;rounded=0;orthogonalLoop=1;jettySize=auto;html=1;entryX=0.5;entryY=0;entryDx=0;entryDy=0;" parent="1" source="qKqS4N5rRysT0K1ulYNM-47" target="qKqS4N5rRysT0K1ulYNM-51" edge="1">
          <mxGeometry relative="1" as="geometry" />
        </mxCell>
        <mxCell id="qKqS4N5rRysT0K1ulYNM-47" value="Укажите дату окончания периода" style="whiteSpace=wrap;html=1;rounded=0;verticalAlign=top;" parent="1" vertex="1">
          <mxGeometry x="137.5" y="650" width="95" height="70" as="geometry" />
        </mxCell>
        <mxCell id="qKqS4N5rRysT0K1ulYNM-55" style="edgeStyle=orthogonalEdgeStyle;rounded=0;orthogonalLoop=1;jettySize=auto;html=1;entryX=0;entryY=0.5;entryDx=0;entryDy=0;exitX=0;exitY=0.5;exitDx=0;exitDy=0;" parent="1" source="qKqS4N5rRysT0K1ulYNM-49" target="qKqS4N5rRysT0K1ulYNM-41" edge="1">
          <mxGeometry relative="1" as="geometry">
            <Array as="points">
              <mxPoint x="100" y="623" />
              <mxPoint x="100" y="510" />
            </Array>
          </mxGeometry>
        </mxCell>
        <mxCell id="qKqS4N5rRysT0K1ulYNM-49" value="отмена" style="rounded=0;whiteSpace=wrap;html=1;" parent="1" vertex="1">
          <mxGeometry x="155" y="615" width="60" height="15" as="geometry" />
        </mxCell>
        <mxCell id="qKqS4N5rRysT0K1ulYNM-56" style="edgeStyle=orthogonalEdgeStyle;rounded=0;orthogonalLoop=1;jettySize=auto;html=1;entryX=0;entryY=0.5;entryDx=0;entryDy=0;" parent="1" source="qKqS4N5rRysT0K1ulYNM-50" target="qKqS4N5rRysT0K1ulYNM-41" edge="1">
          <mxGeometry relative="1" as="geometry">
            <Array as="points">
              <mxPoint x="100" y="713" />
              <mxPoint x="100" y="510" />
            </Array>
          </mxGeometry>
        </mxCell>
        <mxCell id="qKqS4N5rRysT0K1ulYNM-50" value="отмена" style="rounded=0;whiteSpace=wrap;html=1;" parent="1" vertex="1">
          <mxGeometry x="155" y="705" width="60" height="15" as="geometry" />
        </mxCell>
        <mxCell id="qKqS4N5rRysT0K1ulYNM-54" style="edgeStyle=orthogonalEdgeStyle;rounded=0;orthogonalLoop=1;jettySize=auto;html=1;" parent="1" source="qKqS4N5rRysT0K1ulYNM-51" target="qKqS4N5rRysT0K1ulYNM-53" edge="1">
          <mxGeometry relative="1" as="geometry" />
        </mxCell>
        <mxCell id="qKqS4N5rRysT0K1ulYNM-51" value="Сформировать отчет" style="shape=process;whiteSpace=wrap;html=1;backgroundOutline=1;" parent="1" vertex="1">
          <mxGeometry x="125" y="750" width="120" height="60" as="geometry" />
        </mxCell>
        <mxCell id="qKqS4N5rRysT0K1ulYNM-53" value="В начало" style="rounded=0;whiteSpace=wrap;html=1;" parent="1" vertex="1">
          <mxGeometry x="152.5" y="840" width="65" height="30" as="geometry" />
        </mxCell>
        <mxCell id="qKqS4N5rRysT0K1ulYNM-57" value="Ваши последние тренировки:" style="whiteSpace=wrap;html=1;rounded=0;verticalAlign=top;" parent="1" vertex="1">
          <mxGeometry x="390" y="750" width="230" height="170" as="geometry" />
        </mxCell>
        <mxCell id="qKqS4N5rRysT0K1ulYNM-59" value="%Название тренировки% - %дата%" style="rounded=0;whiteSpace=wrap;html=1;" parent="1" vertex="1">
          <mxGeometry x="400" y="775" width="210" height="20" as="geometry" />
        </mxCell>
        <mxCell id="qKqS4N5rRysT0K1ulYNM-60" value="%Название тренировки% - %дата%" style="rounded=0;whiteSpace=wrap;html=1;" parent="1" vertex="1">
          <mxGeometry x="400" y="800" width="210" height="20" as="geometry" />
        </mxCell>
        <mxCell id="qKqS4N5rRysT0K1ulYNM-61" value="%Название тренировки% - %дата%" style="rounded=0;whiteSpace=wrap;html=1;" parent="1" vertex="1">
          <mxGeometry x="400" y="830" width="210" height="20" as="geometry" />
        </mxCell>
        <mxCell id="qKqS4N5rRysT0K1ulYNM-62" value="%Название тренировки% - %дата%" style="rounded=0;whiteSpace=wrap;html=1;" parent="1" vertex="1">
          <mxGeometry x="400" y="855" width="210" height="20" as="geometry" />
        </mxCell>
        <mxCell id="qKqS4N5rRysT0K1ulYNM-74" style="edgeStyle=orthogonalEdgeStyle;rounded=0;orthogonalLoop=1;jettySize=auto;html=1;entryX=0.5;entryY=1;entryDx=0;entryDy=0;" parent="1" source="qKqS4N5rRysT0K1ulYNM-64" target="qKqS4N5rRysT0K1ulYNM-65" edge="1">
          <mxGeometry relative="1" as="geometry">
            <Array as="points">
              <mxPoint x="340" y="825" />
            </Array>
          </mxGeometry>
        </mxCell>
        <mxCell id="qKqS4N5rRysT0K1ulYNM-64" value="Более старые тренировки" style="rounded=0;whiteSpace=wrap;html=1;" parent="1" vertex="1">
          <mxGeometry x="400" y="880" width="130" height="30" as="geometry" />
        </mxCell>
        <mxCell id="qKqS4N5rRysT0K1ulYNM-67" style="edgeStyle=orthogonalEdgeStyle;rounded=0;orthogonalLoop=1;jettySize=auto;html=1;exitX=1;exitY=0.5;exitDx=0;exitDy=0;entryX=0.5;entryY=0;entryDx=0;entryDy=0;" parent="1" source="qKqS4N5rRysT0K1ulYNM-65" target="qKqS4N5rRysT0K1ulYNM-66" edge="1">
          <mxGeometry relative="1" as="geometry">
            <mxPoint x="425" y="669.9999999999995" as="sourcePoint" />
          </mxGeometry>
        </mxCell>
        <mxCell id="qKqS4N5rRysT0K1ulYNM-65" value="Получить последние 4 тренировки, посещенные участником" style="shape=process;whiteSpace=wrap;html=1;backgroundOutline=1;" parent="1" vertex="1">
          <mxGeometry x="260" y="570" width="160" height="60" as="geometry" />
        </mxCell>
        <mxCell id="qKqS4N5rRysT0K1ulYNM-68" style="edgeStyle=orthogonalEdgeStyle;rounded=0;orthogonalLoop=1;jettySize=auto;html=1;entryX=0.5;entryY=0;entryDx=0;entryDy=0;" parent="1" source="qKqS4N5rRysT0K1ulYNM-66" target="qKqS4N5rRysT0K1ulYNM-57" edge="1">
          <mxGeometry relative="1" as="geometry" />
        </mxCell>
        <mxCell id="qKqS4N5rRysT0K1ulYNM-86" value="Да" style="edgeLabel;html=1;align=center;verticalAlign=middle;resizable=0;points=[];" parent="qKqS4N5rRysT0K1ulYNM-68" vertex="1" connectable="0">
          <mxGeometry x="-0.3333" y="1" relative="1" as="geometry">
            <mxPoint as="offset" />
          </mxGeometry>
        </mxCell>
        <mxCell id="qKqS4N5rRysT0K1ulYNM-70" value="" style="edgeStyle=orthogonalEdgeStyle;rounded=0;orthogonalLoop=1;jettySize=auto;html=1;" parent="1" source="qKqS4N5rRysT0K1ulYNM-66" target="qKqS4N5rRysT0K1ulYNM-69" edge="1">
          <mxGeometry relative="1" as="geometry" />
        </mxCell>
        <mxCell id="qKqS4N5rRysT0K1ulYNM-84" value="Нет" style="edgeLabel;html=1;align=center;verticalAlign=middle;resizable=0;points=[];" parent="qKqS4N5rRysT0K1ulYNM-70" vertex="1" connectable="0">
          <mxGeometry x="-0.5333" y="2" relative="1" as="geometry">
            <mxPoint as="offset" />
          </mxGeometry>
        </mxCell>
        <mxCell id="qKqS4N5rRysT0K1ulYNM-66" value="Есть тренировки?" style="rhombus;whiteSpace=wrap;html=1;" parent="1" vertex="1">
          <mxGeometry x="450" y="630" width="95" height="80" as="geometry" />
        </mxCell>
        <mxCell id="qKqS4N5rRysT0K1ulYNM-69" value="Вы не посещали тренировок" style="whiteSpace=wrap;html=1;verticalAlign=top;" parent="1" vertex="1">
          <mxGeometry x="645" y="750" width="120" height="70" as="geometry" />
        </mxCell>
        <mxCell id="qKqS4N5rRysT0K1ulYNM-71" value="В начало" style="rounded=0;whiteSpace=wrap;html=1;" parent="1" vertex="1">
          <mxGeometry x="545" y="880" width="65" height="30" as="geometry" />
        </mxCell>
        <mxCell id="qKqS4N5rRysT0K1ulYNM-73" value="В начало" style="rounded=0;whiteSpace=wrap;html=1;" parent="1" vertex="1">
          <mxGeometry x="672.5" y="790" width="65" height="30" as="geometry" />
        </mxCell>
        <mxCell id="qKqS4N5rRysT0K1ulYNM-78" style="edgeStyle=orthogonalEdgeStyle;rounded=0;orthogonalLoop=1;jettySize=auto;html=1;entryX=0.5;entryY=0;entryDx=0;entryDy=0;" parent="1" source="qKqS4N5rRysT0K1ulYNM-75" target="qKqS4N5rRysT0K1ulYNM-77" edge="1">
          <mxGeometry relative="1" as="geometry" />
        </mxCell>
        <mxCell id="qKqS4N5rRysT0K1ulYNM-75" value="Сформировать список предстоящих мероприятий" style="shape=process;whiteSpace=wrap;html=1;backgroundOutline=1;" parent="1" vertex="1">
          <mxGeometry x="562.5" y="370" width="120" height="60" as="geometry" />
        </mxCell>
        <mxCell id="qKqS4N5rRysT0K1ulYNM-77" value="Будущие тренировки:" style="rounded=0;whiteSpace=wrap;html=1;verticalAlign=top;" parent="1" vertex="1">
          <mxGeometry x="507.5" y="450" width="230" height="110" as="geometry" />
        </mxCell>
        <mxCell id="qKqS4N5rRysT0K1ulYNM-96" style="edgeStyle=orthogonalEdgeStyle;rounded=0;orthogonalLoop=1;jettySize=auto;html=1;entryX=0;entryY=0.5;entryDx=0;entryDy=0;" parent="1" source="qKqS4N5rRysT0K1ulYNM-79" target="qKqS4N5rRysT0K1ulYNM-83" edge="1">
          <mxGeometry relative="1" as="geometry" />
        </mxCell>
        <mxCell id="qKqS4N5rRysT0K1ulYNM-79" value="%Название тренировки% - %дата%" style="rounded=0;whiteSpace=wrap;html=1;" parent="1" vertex="1">
          <mxGeometry x="517.5" y="480" width="210" height="20" as="geometry" />
        </mxCell>
        <mxCell id="qKqS4N5rRysT0K1ulYNM-97" style="edgeStyle=orthogonalEdgeStyle;rounded=0;orthogonalLoop=1;jettySize=auto;html=1;entryX=0;entryY=0.5;entryDx=0;entryDy=0;" parent="1" source="qKqS4N5rRysT0K1ulYNM-80" target="qKqS4N5rRysT0K1ulYNM-83" edge="1">
          <mxGeometry relative="1" as="geometry" />
        </mxCell>
        <mxCell id="qKqS4N5rRysT0K1ulYNM-80" value="%Название тренировки% - %дата%" style="rounded=0;whiteSpace=wrap;html=1;" parent="1" vertex="1">
          <mxGeometry x="517.5" y="510" width="210" height="20" as="geometry" />
        </mxCell>
        <mxCell id="qKqS4N5rRysT0K1ulYNM-81" value="Отмена" style="rounded=0;whiteSpace=wrap;html=1;" parent="1" vertex="1">
          <mxGeometry x="215" y="505" width="65" height="30" as="geometry" />
        </mxCell>
        <mxCell id="qKqS4N5rRysT0K1ulYNM-82" value="В начало" style="rounded=0;whiteSpace=wrap;html=1;" parent="1" vertex="1">
          <mxGeometry x="590" y="535" width="65" height="25" as="geometry" />
        </mxCell>
        <mxCell id="qKqS4N5rRysT0K1ulYNM-89" value="" style="edgeStyle=orthogonalEdgeStyle;rounded=0;orthogonalLoop=1;jettySize=auto;html=1;" parent="1" source="qKqS4N5rRysT0K1ulYNM-83" target="qKqS4N5rRysT0K1ulYNM-88" edge="1">
          <mxGeometry relative="1" as="geometry" />
        </mxCell>
        <mxCell id="qKqS4N5rRysT0K1ulYNM-98" value="Нет" style="edgeLabel;html=1;align=center;verticalAlign=middle;resizable=0;points=[];" parent="qKqS4N5rRysT0K1ulYNM-89" vertex="1" connectable="0">
          <mxGeometry x="-0.2" y="-2" relative="1" as="geometry">
            <mxPoint as="offset" />
          </mxGeometry>
        </mxCell>
        <mxCell id="qKqS4N5rRysT0K1ulYNM-100" value="" style="edgeStyle=orthogonalEdgeStyle;rounded=0;orthogonalLoop=1;jettySize=auto;html=1;" parent="1" source="qKqS4N5rRysT0K1ulYNM-83" target="qKqS4N5rRysT0K1ulYNM-99" edge="1">
          <mxGeometry relative="1" as="geometry" />
        </mxCell>
        <mxCell id="qKqS4N5rRysT0K1ulYNM-83" value="Участник зарегистрирован?" style="rhombus;whiteSpace=wrap;html=1;" parent="1" vertex="1">
          <mxGeometry x="800" y="460" width="200" height="80" as="geometry" />
        </mxCell>
        <mxCell id="qKqS4N5rRysT0K1ulYNM-88" value="Доступно мест: %Общее кол-во мест% - %количество зарегистрированных%" style="whiteSpace=wrap;html=1;verticalAlign=top;" parent="1" vertex="1">
          <mxGeometry x="1040" y="455" width="190" height="90" as="geometry" />
        </mxCell>
        <mxCell id="qKqS4N5rRysT0K1ulYNM-90" value="В начало" style="rounded=0;whiteSpace=wrap;html=1;" parent="1" vertex="1">
          <mxGeometry x="1160" y="520" width="65" height="25" as="geometry" />
        </mxCell>
        <mxCell id="qKqS4N5rRysT0K1ulYNM-93" style="edgeStyle=orthogonalEdgeStyle;rounded=0;orthogonalLoop=1;jettySize=auto;html=1;" parent="1" source="qKqS4N5rRysT0K1ulYNM-91" target="qKqS4N5rRysT0K1ulYNM-92" edge="1">
          <mxGeometry relative="1" as="geometry" />
        </mxCell>
        <mxCell id="qKqS4N5rRysT0K1ulYNM-91" value="Я буду" style="rounded=0;whiteSpace=wrap;html=1;" parent="1" vertex="1">
          <mxGeometry x="1050" y="520" width="65" height="25" as="geometry" />
        </mxCell>
        <mxCell id="qKqS4N5rRysT0K1ulYNM-95" value="" style="edgeStyle=orthogonalEdgeStyle;rounded=0;orthogonalLoop=1;jettySize=auto;html=1;" parent="1" source="qKqS4N5rRysT0K1ulYNM-92" target="qKqS4N5rRysT0K1ulYNM-94" edge="1">
          <mxGeometry relative="1" as="geometry" />
        </mxCell>
        <mxCell id="qKqS4N5rRysT0K1ulYNM-92" value="Записать участника на намероприятие" style="shape=process;whiteSpace=wrap;html=1;backgroundOutline=1;" parent="1" vertex="1">
          <mxGeometry x="1022.5" y="570" width="120" height="60" as="geometry" />
        </mxCell>
        <mxCell id="qKqS4N5rRysT0K1ulYNM-94" value="В начало" style="whiteSpace=wrap;html=1;" parent="1" vertex="1">
          <mxGeometry x="1180" y="585" width="67.5" height="30" as="geometry" />
        </mxCell>
        <mxCell id="qKqS4N5rRysT0K1ulYNM-99" value="Вы зарегистрированы на это мероприятие&amp;nbsp;&lt;br&gt;%Название% %Дата%" style="whiteSpace=wrap;html=1;verticalAlign=top;" parent="1" vertex="1">
          <mxGeometry x="810" y="570" width="180" height="100" as="geometry" />
        </mxCell>
        <mxCell id="qKqS4N5rRysT0K1ulYNM-104" style="edgeStyle=orthogonalEdgeStyle;rounded=0;orthogonalLoop=1;jettySize=auto;html=1;entryX=0.5;entryY=0;entryDx=0;entryDy=0;" parent="1" source="qKqS4N5rRysT0K1ulYNM-101" target="qKqS4N5rRysT0K1ulYNM-103" edge="1">
          <mxGeometry relative="1" as="geometry" />
        </mxCell>
        <mxCell id="qKqS4N5rRysT0K1ulYNM-101" value="Отменить запись" style="rounded=0;whiteSpace=wrap;html=1;" parent="1" vertex="1">
          <mxGeometry x="810" y="640" width="80" height="30" as="geometry" />
        </mxCell>
        <mxCell id="qKqS4N5rRysT0K1ulYNM-102" value="В начало" style="rounded=0;whiteSpace=wrap;html=1;" parent="1" vertex="1">
          <mxGeometry x="910" y="640" width="80" height="30" as="geometry" />
        </mxCell>
        <mxCell id="qKqS4N5rRysT0K1ulYNM-106" style="edgeStyle=orthogonalEdgeStyle;rounded=0;orthogonalLoop=1;jettySize=auto;html=1;" parent="1" source="qKqS4N5rRysT0K1ulYNM-103" target="qKqS4N5rRysT0K1ulYNM-105" edge="1">
          <mxGeometry relative="1" as="geometry" />
        </mxCell>
        <mxCell id="qKqS4N5rRysT0K1ulYNM-103" value="Отменить регистрацию участника" style="shape=process;whiteSpace=wrap;html=1;backgroundOutline=1;" parent="1" vertex="1">
          <mxGeometry x="790" y="695" width="120" height="60" as="geometry" />
        </mxCell>
        <mxCell id="qKqS4N5rRysT0K1ulYNM-105" value="В начало" style="whiteSpace=wrap;html=1;" parent="1" vertex="1">
          <mxGeometry x="922.5" y="710" width="67.5" height="30" as="geometry" />
        </mxCell>
        <mxCell id="qKqS4N5rRysT0K1ulYNM-112" value="" style="edgeStyle=orthogonalEdgeStyle;rounded=0;orthogonalLoop=1;jettySize=auto;html=1;" parent="1" source="qKqS4N5rRysT0K1ulYNM-107" target="qKqS4N5rRysT0K1ulYNM-111" edge="1">
          <mxGeometry relative="1" as="geometry" />
        </mxCell>
        <mxCell id="qKqS4N5rRysT0K1ulYNM-107" value="Мероприятия" style="rounded=0;whiteSpace=wrap;html=1;" parent="1" vertex="1">
          <mxGeometry x="855" y="260" width="120" height="30" as="geometry" />
        </mxCell>
        <mxCell id="qKqS4N5rRysT0K1ulYNM-168" value="" style="edgeStyle=orthogonalEdgeStyle;rounded=0;orthogonalLoop=1;jettySize=auto;html=1;" parent="1" source="qKqS4N5rRysT0K1ulYNM-108" target="qKqS4N5rRysT0K1ulYNM-169" edge="1">
          <mxGeometry relative="1" as="geometry">
            <mxPoint x="1054.9999999999995" y="315" as="targetPoint" />
          </mxGeometry>
        </mxCell>
        <mxCell id="qKqS4N5rRysT0K1ulYNM-108" value="Регистрация участников" style="rounded=0;whiteSpace=wrap;html=1;" parent="1" vertex="1">
          <mxGeometry x="855" y="300" width="120" height="30" as="geometry" />
        </mxCell>
        <mxCell id="qKqS4N5rRysT0K1ulYNM-109" value="Статистика" style="rounded=0;whiteSpace=wrap;html=1;" parent="1" vertex="1">
          <mxGeometry x="855" y="340" width="120" height="30" as="geometry" />
        </mxCell>
        <mxCell id="qKqS4N5rRysT0K1ulYNM-111" value="" style="whiteSpace=wrap;html=1;rounded=0;" parent="1" vertex="1">
          <mxGeometry x="1040" y="90" width="200" height="130" as="geometry" />
        </mxCell>
        <mxCell id="qKqS4N5rRysT0K1ulYNM-119" value="" style="edgeStyle=orthogonalEdgeStyle;rounded=0;orthogonalLoop=1;jettySize=auto;html=1;" parent="1" source="qKqS4N5rRysT0K1ulYNM-113" target="qKqS4N5rRysT0K1ulYNM-120" edge="1">
          <mxGeometry relative="1" as="geometry">
            <mxPoint x="1330.0526315789475" y="90" as="targetPoint" />
          </mxGeometry>
        </mxCell>
        <mxCell id="qKqS4N5rRysT0K1ulYNM-113" value="Просмотр текущих мероприятий" style="rounded=0;whiteSpace=wrap;html=1;" parent="1" vertex="1">
          <mxGeometry x="1060" y="100" width="160" height="30" as="geometry" />
        </mxCell>
        <mxCell id="qKqS4N5rRysT0K1ulYNM-137" value="" style="edgeStyle=orthogonalEdgeStyle;rounded=0;orthogonalLoop=1;jettySize=auto;html=1;" parent="1" source="qKqS4N5rRysT0K1ulYNM-114" target="qKqS4N5rRysT0K1ulYNM-136" edge="1">
          <mxGeometry relative="1" as="geometry" />
        </mxCell>
        <mxCell id="qKqS4N5rRysT0K1ulYNM-114" value="Добавить мероприятие" style="rounded=0;whiteSpace=wrap;html=1;" parent="1" vertex="1">
          <mxGeometry x="1060" y="140" width="160" height="30" as="geometry" />
        </mxCell>
        <mxCell id="qKqS4N5rRysT0K1ulYNM-148" style="edgeStyle=orthogonalEdgeStyle;rounded=0;orthogonalLoop=1;jettySize=auto;html=1;entryX=0;entryY=0.5;entryDx=0;entryDy=0;" parent="1" source="qKqS4N5rRysT0K1ulYNM-117" target="qKqS4N5rRysT0K1ulYNM-147" edge="1">
          <mxGeometry relative="1" as="geometry" />
        </mxCell>
        <mxCell id="qKqS4N5rRysT0K1ulYNM-117" value="Архив мероприятий" style="rounded=0;whiteSpace=wrap;html=1;" parent="1" vertex="1">
          <mxGeometry x="1060" y="180" width="160" height="30" as="geometry" />
        </mxCell>
        <mxCell id="qKqS4N5rRysT0K1ulYNM-122" value="" style="edgeStyle=orthogonalEdgeStyle;rounded=0;orthogonalLoop=1;jettySize=auto;html=1;" parent="1" source="qKqS4N5rRysT0K1ulYNM-120" target="qKqS4N5rRysT0K1ulYNM-121" edge="1">
          <mxGeometry relative="1" as="geometry" />
        </mxCell>
        <mxCell id="qKqS4N5rRysT0K1ulYNM-120" value="Получить список текущих мероприятий" style="shape=process;whiteSpace=wrap;html=1;backgroundOutline=1;" parent="1" vertex="1">
          <mxGeometry x="1260" y="30" width="150" height="60" as="geometry" />
        </mxCell>
        <mxCell id="qKqS4N5rRysT0K1ulYNM-121" value="" style="whiteSpace=wrap;html=1;" parent="1" vertex="1">
          <mxGeometry x="1218.75" y="-120" width="232.5" height="120" as="geometry" />
        </mxCell>
        <mxCell id="qKqS4N5rRysT0K1ulYNM-127" value="" style="edgeStyle=orthogonalEdgeStyle;rounded=0;orthogonalLoop=1;jettySize=auto;html=1;" parent="1" source="qKqS4N5rRysT0K1ulYNM-123" target="qKqS4N5rRysT0K1ulYNM-126" edge="1">
          <mxGeometry relative="1" as="geometry" />
        </mxCell>
        <mxCell id="qKqS4N5rRysT0K1ulYNM-123" value="%Название тренировки% - %дата%" style="rounded=0;whiteSpace=wrap;html=1;" parent="1" vertex="1">
          <mxGeometry x="1231.25" y="-100" width="210" height="20" as="geometry" />
        </mxCell>
        <mxCell id="qKqS4N5rRysT0K1ulYNM-124" value="%Название тренировки% - %дата%" style="rounded=0;whiteSpace=wrap;html=1;" parent="1" vertex="1">
          <mxGeometry x="1231.25" y="-70" width="210" height="20" as="geometry" />
        </mxCell>
        <mxCell id="qKqS4N5rRysT0K1ulYNM-125" value="%Название тренировки% - %дата%" style="rounded=0;whiteSpace=wrap;html=1;" parent="1" vertex="1">
          <mxGeometry x="1231.25" y="-40" width="210" height="20" as="geometry" />
        </mxCell>
        <mxCell id="qKqS4N5rRysT0K1ulYNM-126" value="" style="whiteSpace=wrap;html=1;rounded=0;" parent="1" vertex="1">
          <mxGeometry x="1490" y="-160" width="160" height="140" as="geometry" />
        </mxCell>
        <mxCell id="qKqS4N5rRysT0K1ulYNM-150" value="" style="edgeStyle=orthogonalEdgeStyle;rounded=0;orthogonalLoop=1;jettySize=auto;html=1;" parent="1" source="qKqS4N5rRysT0K1ulYNM-128" target="qKqS4N5rRysT0K1ulYNM-149" edge="1">
          <mxGeometry relative="1" as="geometry" />
        </mxCell>
        <mxCell id="qKqS4N5rRysT0K1ulYNM-128" value="Редактировать мероприятие" style="rounded=0;whiteSpace=wrap;html=1;" parent="1" vertex="1">
          <mxGeometry x="1510" y="-150" width="120" height="30" as="geometry" />
        </mxCell>
        <mxCell id="qKqS4N5rRysT0K1ulYNM-131" value="" style="edgeStyle=orthogonalEdgeStyle;rounded=0;orthogonalLoop=1;jettySize=auto;html=1;entryX=0;entryY=0.5;entryDx=0;entryDy=0;" parent="1" source="qKqS4N5rRysT0K1ulYNM-129" target="qKqS4N5rRysT0K1ulYNM-156" edge="1">
          <mxGeometry relative="1" as="geometry" />
        </mxCell>
        <mxCell id="qKqS4N5rRysT0K1ulYNM-129" value="Просмотр участников мероприятия" style="rounded=0;whiteSpace=wrap;html=1;" parent="1" vertex="1">
          <mxGeometry x="1510" y="-110" width="120" height="40" as="geometry" />
        </mxCell>
        <mxCell id="qKqS4N5rRysT0K1ulYNM-130" value="" style="whiteSpace=wrap;html=1;rounded=0;" parent="1" vertex="1">
          <mxGeometry x="1870" y="-140" width="160" height="130" as="geometry" />
        </mxCell>
        <mxCell id="qKqS4N5rRysT0K1ulYNM-155" value="" style="edgeStyle=orthogonalEdgeStyle;rounded=0;orthogonalLoop=1;jettySize=auto;html=1;" parent="1" source="qKqS4N5rRysT0K1ulYNM-132" target="qKqS4N5rRysT0K1ulYNM-154" edge="1">
          <mxGeometry relative="1" as="geometry" />
        </mxCell>
        <mxCell id="qKqS4N5rRysT0K1ulYNM-132" value="Просмотр результатов" style="rounded=0;whiteSpace=wrap;html=1;" parent="1" vertex="1">
          <mxGeometry x="1895.62" y="-135" width="110" height="30" as="geometry" />
        </mxCell>
        <mxCell id="qKqS4N5rRysT0K1ulYNM-166" value="" style="edgeStyle=orthogonalEdgeStyle;rounded=0;orthogonalLoop=1;jettySize=auto;html=1;" parent="1" source="qKqS4N5rRysT0K1ulYNM-133" target="qKqS4N5rRysT0K1ulYNM-165" edge="1">
          <mxGeometry relative="1" as="geometry" />
        </mxCell>
        <mxCell id="qKqS4N5rRysT0K1ulYNM-133" value="Внести результаты по участнику" style="rounded=0;whiteSpace=wrap;html=1;" parent="1" vertex="1">
          <mxGeometry x="1890" y="-90" width="120" height="40" as="geometry" />
        </mxCell>
        <mxCell id="qKqS4N5rRysT0K1ulYNM-134" value="Отмена" style="rounded=0;whiteSpace=wrap;html=1;" parent="1" vertex="1">
          <mxGeometry x="1520.63" y="-50" width="98.75" height="30" as="geometry" />
        </mxCell>
        <mxCell id="qKqS4N5rRysT0K1ulYNM-135" value="Отмена" style="rounded=0;whiteSpace=wrap;html=1;" parent="1" vertex="1">
          <mxGeometry x="1895.6200000000001" y="-40" width="98.75" height="30" as="geometry" />
        </mxCell>
        <mxCell id="qKqS4N5rRysT0K1ulYNM-139" value="" style="edgeStyle=orthogonalEdgeStyle;rounded=0;orthogonalLoop=1;jettySize=auto;html=1;" parent="1" source="qKqS4N5rRysT0K1ulYNM-136" target="qKqS4N5rRysT0K1ulYNM-138" edge="1">
          <mxGeometry relative="1" as="geometry" />
        </mxCell>
        <mxCell id="qKqS4N5rRysT0K1ulYNM-136" value="Укажите название мероприятия" style="whiteSpace=wrap;html=1;rounded=0;" parent="1" vertex="1">
          <mxGeometry x="1320" y="125" width="120" height="60" as="geometry" />
        </mxCell>
        <mxCell id="qKqS4N5rRysT0K1ulYNM-141" value="" style="edgeStyle=orthogonalEdgeStyle;rounded=0;orthogonalLoop=1;jettySize=auto;html=1;" parent="1" source="qKqS4N5rRysT0K1ulYNM-138" target="qKqS4N5rRysT0K1ulYNM-140" edge="1">
          <mxGeometry relative="1" as="geometry" />
        </mxCell>
        <mxCell id="qKqS4N5rRysT0K1ulYNM-138" value="Укажите дату мероприятия" style="whiteSpace=wrap;html=1;rounded=0;" parent="1" vertex="1">
          <mxGeometry x="1520" y="125" width="120" height="60" as="geometry" />
        </mxCell>
        <mxCell id="qKqS4N5rRysT0K1ulYNM-143" value="" style="edgeStyle=orthogonalEdgeStyle;rounded=0;orthogonalLoop=1;jettySize=auto;html=1;" parent="1" source="qKqS4N5rRysT0K1ulYNM-140" target="qKqS4N5rRysT0K1ulYNM-142" edge="1">
          <mxGeometry relative="1" as="geometry" />
        </mxCell>
        <mxCell id="qKqS4N5rRysT0K1ulYNM-145" style="edgeStyle=orthogonalEdgeStyle;rounded=0;orthogonalLoop=1;jettySize=auto;html=1;entryX=0.5;entryY=1;entryDx=0;entryDy=0;exitX=0.5;exitY=1;exitDx=0;exitDy=0;" parent="1" source="qKqS4N5rRysT0K1ulYNM-140" target="qKqS4N5rRysT0K1ulYNM-138" edge="1">
          <mxGeometry relative="1" as="geometry" />
        </mxCell>
        <mxCell id="qKqS4N5rRysT0K1ulYNM-146" value="Дата должна быть &lt;br&gt;позже чем сегодня" style="edgeLabel;html=1;align=center;verticalAlign=middle;resizable=0;points=[];" parent="qKqS4N5rRysT0K1ulYNM-145" vertex="1" connectable="0">
          <mxGeometry x="-0.3805" y="3" relative="1" as="geometry">
            <mxPoint x="-34" y="-8" as="offset" />
          </mxGeometry>
        </mxCell>
        <mxCell id="qKqS4N5rRysT0K1ulYNM-140" value="Дата норм?" style="rhombus;whiteSpace=wrap;html=1;rounded=0;" parent="1" vertex="1">
          <mxGeometry x="1690" y="115" width="80" height="80" as="geometry" />
        </mxCell>
        <mxCell id="qKqS4N5rRysT0K1ulYNM-142" value="Готово" style="whiteSpace=wrap;html=1;rounded=0;verticalAlign=top;" parent="1" vertex="1">
          <mxGeometry x="1825.62" y="125" width="120" height="60" as="geometry" />
        </mxCell>
        <mxCell id="qKqS4N5rRysT0K1ulYNM-144" value="В начало" style="whiteSpace=wrap;html=1;" parent="1" vertex="1">
          <mxGeometry x="1850" y="155" width="67.5" height="30" as="geometry" />
        </mxCell>
        <mxCell id="qKqS4N5rRysT0K1ulYNM-188" value="" style="edgeStyle=orthogonalEdgeStyle;rounded=0;orthogonalLoop=1;jettySize=auto;html=1;" parent="1" source="qKqS4N5rRysT0K1ulYNM-147" target="qKqS4N5rRysT0K1ulYNM-187" edge="1">
          <mxGeometry relative="1" as="geometry" />
        </mxCell>
        <mxCell id="qKqS4N5rRysT0K1ulYNM-147" value="Получить список последних 10 мероприятий&amp;nbsp;" style="shape=process;whiteSpace=wrap;html=1;backgroundOutline=1;" parent="1" vertex="1">
          <mxGeometry x="1301.25" y="245" width="150" height="60" as="geometry" />
        </mxCell>
        <mxCell id="qKqS4N5rRysT0K1ulYNM-149" value="" style="whiteSpace=wrap;html=1;rounded=0;" parent="1" vertex="1">
          <mxGeometry x="1510" y="-350" width="120" height="135" as="geometry" />
        </mxCell>
        <mxCell id="qKqS4N5rRysT0K1ulYNM-151" value="Изменить дату" style="rounded=0;whiteSpace=wrap;html=1;" parent="1" vertex="1">
          <mxGeometry x="1515.01" y="-340" width="109.99" height="30" as="geometry" />
        </mxCell>
        <mxCell id="qKqS4N5rRysT0K1ulYNM-152" value="Изменить название" style="rounded=0;whiteSpace=wrap;html=1;" parent="1" vertex="1">
          <mxGeometry x="1515.01" y="-300" width="109.99" height="30" as="geometry" />
        </mxCell>
        <mxCell id="qKqS4N5rRysT0K1ulYNM-153" value="Отмена" style="rounded=0;whiteSpace=wrap;html=1;" parent="1" vertex="1">
          <mxGeometry x="1520" y="-245" width="98.75" height="30" as="geometry" />
        </mxCell>
        <mxCell id="qKqS4N5rRysT0K1ulYNM-154" value="Результаты участника:&lt;br&gt;%Результаты%" style="whiteSpace=wrap;html=1;rounded=0;" parent="1" vertex="1">
          <mxGeometry x="1890.62" y="-260" width="120" height="60" as="geometry" />
        </mxCell>
        <mxCell id="qKqS4N5rRysT0K1ulYNM-156" value="Список участников мероприятия %название% %Дата%&amp;nbsp;" style="rounded=0;whiteSpace=wrap;html=1;verticalAlign=top;" parent="1" vertex="1">
          <mxGeometry x="1674.99" y="-175" width="140" height="170" as="geometry" />
        </mxCell>
        <mxCell id="qKqS4N5rRysT0K1ulYNM-162" style="edgeStyle=orthogonalEdgeStyle;rounded=0;orthogonalLoop=1;jettySize=auto;html=1;entryX=0;entryY=0.5;entryDx=0;entryDy=0;" parent="1" source="qKqS4N5rRysT0K1ulYNM-157" target="qKqS4N5rRysT0K1ulYNM-130" edge="1">
          <mxGeometry relative="1" as="geometry" />
        </mxCell>
        <mxCell id="qKqS4N5rRysT0K1ulYNM-157" value="Участник %Имя%" style="rounded=0;whiteSpace=wrap;html=1;" parent="1" vertex="1">
          <mxGeometry x="1690" y="-110" width="109.99" height="20" as="geometry" />
        </mxCell>
        <mxCell id="qKqS4N5rRysT0K1ulYNM-163" style="edgeStyle=orthogonalEdgeStyle;rounded=0;orthogonalLoop=1;jettySize=auto;html=1;entryX=0;entryY=0.5;entryDx=0;entryDy=0;" parent="1" source="qKqS4N5rRysT0K1ulYNM-158" target="qKqS4N5rRysT0K1ulYNM-130" edge="1">
          <mxGeometry relative="1" as="geometry" />
        </mxCell>
        <mxCell id="qKqS4N5rRysT0K1ulYNM-158" value="Участник %Имя%" style="rounded=0;whiteSpace=wrap;html=1;" parent="1" vertex="1">
          <mxGeometry x="1690.01" y="-80" width="109.99" height="20" as="geometry" />
        </mxCell>
        <mxCell id="qKqS4N5rRysT0K1ulYNM-164" style="edgeStyle=orthogonalEdgeStyle;rounded=0;orthogonalLoop=1;jettySize=auto;html=1;entryX=0;entryY=0.5;entryDx=0;entryDy=0;" parent="1" source="qKqS4N5rRysT0K1ulYNM-159" target="qKqS4N5rRysT0K1ulYNM-130" edge="1">
          <mxGeometry relative="1" as="geometry" />
        </mxCell>
        <mxCell id="qKqS4N5rRysT0K1ulYNM-159" value="Участник %Имя%" style="rounded=0;whiteSpace=wrap;html=1;" parent="1" vertex="1">
          <mxGeometry x="1690.01" y="-50" width="109.99" height="20" as="geometry" />
        </mxCell>
        <mxCell id="qKqS4N5rRysT0K1ulYNM-165" value="Введите результаты тренировки" style="whiteSpace=wrap;html=1;rounded=0;" parent="1" vertex="1">
          <mxGeometry x="2090" y="-100" width="120" height="60" as="geometry" />
        </mxCell>
        <mxCell id="qKqS4N5rRysT0K1ulYNM-171" value="" style="edgeStyle=orthogonalEdgeStyle;rounded=0;orthogonalLoop=1;jettySize=auto;html=1;" parent="1" source="qKqS4N5rRysT0K1ulYNM-169" target="qKqS4N5rRysT0K1ulYNM-172" edge="1">
          <mxGeometry relative="1" as="geometry">
            <mxPoint x="1259.9999999999995" y="370.05882352941217" as="targetPoint" />
          </mxGeometry>
        </mxCell>
        <mxCell id="qKqS4N5rRysT0K1ulYNM-169" value="Получить список Заявок на участие" style="shape=process;whiteSpace=wrap;html=1;backgroundOutline=1;" parent="1" vertex="1">
          <mxGeometry x="1040" y="305" width="150" height="60" as="geometry" />
        </mxCell>
        <mxCell id="qKqS4N5rRysT0K1ulYNM-174" value="" style="edgeStyle=orthogonalEdgeStyle;rounded=0;orthogonalLoop=1;jettySize=auto;html=1;" parent="1" source="qKqS4N5rRysT0K1ulYNM-172" target="qKqS4N5rRysT0K1ulYNM-173" edge="1">
          <mxGeometry relative="1" as="geometry" />
        </mxCell>
        <mxCell id="qKqS4N5rRysT0K1ulYNM-176" value="Нет" style="edgeLabel;html=1;align=center;verticalAlign=middle;resizable=0;points=[];" parent="qKqS4N5rRysT0K1ulYNM-174" vertex="1" connectable="0">
          <mxGeometry x="-0.3624" y="3" relative="1" as="geometry">
            <mxPoint as="offset" />
          </mxGeometry>
        </mxCell>
        <mxCell id="qKqS4N5rRysT0K1ulYNM-178" value="" style="edgeStyle=orthogonalEdgeStyle;rounded=0;orthogonalLoop=1;jettySize=auto;html=1;" parent="1" source="qKqS4N5rRysT0K1ulYNM-172" target="qKqS4N5rRysT0K1ulYNM-177" edge="1">
          <mxGeometry relative="1" as="geometry" />
        </mxCell>
        <mxCell id="qKqS4N5rRysT0K1ulYNM-172" value="Есть заявки?" style="rhombus;whiteSpace=wrap;html=1;" parent="1" vertex="1">
          <mxGeometry x="1210" y="295" width="80" height="80" as="geometry" />
        </mxCell>
        <mxCell id="qKqS4N5rRysT0K1ulYNM-173" value="Заявок нет" style="whiteSpace=wrap;html=1;verticalAlign=top;" parent="1" vertex="1">
          <mxGeometry x="1250" y="415" width="120" height="60" as="geometry" />
        </mxCell>
        <mxCell id="qKqS4N5rRysT0K1ulYNM-175" value="В начало" style="rounded=0;whiteSpace=wrap;html=1;" parent="1" vertex="1">
          <mxGeometry x="1277.5" y="450" width="65" height="25" as="geometry" />
        </mxCell>
        <mxCell id="qKqS4N5rRysT0K1ulYNM-177" value="Заявки на участие:&lt;br&gt;" style="whiteSpace=wrap;html=1;verticalAlign=top;" parent="1" vertex="1">
          <mxGeometry x="1390" y="330" width="150" height="100" as="geometry" />
        </mxCell>
        <mxCell id="qKqS4N5rRysT0K1ulYNM-182" value="" style="edgeStyle=orthogonalEdgeStyle;rounded=0;orthogonalLoop=1;jettySize=auto;html=1;" parent="1" source="qKqS4N5rRysT0K1ulYNM-179" target="qKqS4N5rRysT0K1ulYNM-181" edge="1">
          <mxGeometry relative="1" as="geometry" />
        </mxCell>
        <mxCell id="qKqS4N5rRysT0K1ulYNM-179" value="Заявка %имя%" style="rounded=0;whiteSpace=wrap;html=1;" parent="1" vertex="1">
          <mxGeometry x="1405" y="360" width="120" height="25" as="geometry" />
        </mxCell>
        <mxCell id="qKqS4N5rRysT0K1ulYNM-186" style="edgeStyle=orthogonalEdgeStyle;rounded=0;orthogonalLoop=1;jettySize=auto;html=1;entryX=0;entryY=0.5;entryDx=0;entryDy=0;" parent="1" source="qKqS4N5rRysT0K1ulYNM-180" target="qKqS4N5rRysT0K1ulYNM-181" edge="1">
          <mxGeometry relative="1" as="geometry" />
        </mxCell>
        <mxCell id="qKqS4N5rRysT0K1ulYNM-180" value="Заявка %имя%" style="rounded=0;whiteSpace=wrap;html=1;" parent="1" vertex="1">
          <mxGeometry x="1405" y="390" width="120" height="25" as="geometry" />
        </mxCell>
        <mxCell id="qKqS4N5rRysT0K1ulYNM-181" value="Имя: %Имя%&lt;br&gt;email: %email%" style="whiteSpace=wrap;html=1;rounded=0;verticalAlign=top;" parent="1" vertex="1">
          <mxGeometry x="1580" y="327.5" width="170" height="102.5" as="geometry" />
        </mxCell>
        <mxCell id="qKqS4N5rRysT0K1ulYNM-183" value="Подтвердить" style="rounded=0;whiteSpace=wrap;html=1;" parent="1" vertex="1">
          <mxGeometry x="1585" y="365" width="80" height="30" as="geometry" />
        </mxCell>
        <mxCell id="qKqS4N5rRysT0K1ulYNM-184" value="Отклонить" style="rounded=0;whiteSpace=wrap;html=1;" parent="1" vertex="1">
          <mxGeometry x="1670" y="365" width="70" height="30" as="geometry" />
        </mxCell>
        <mxCell id="qKqS4N5rRysT0K1ulYNM-185" value="Отмена" style="rounded=0;whiteSpace=wrap;html=1;" parent="1" vertex="1">
          <mxGeometry x="1615.63" y="397.5" width="98.75" height="22.5" as="geometry" />
        </mxCell>
        <mxCell id="qKqS4N5rRysT0K1ulYNM-190" style="edgeStyle=orthogonalEdgeStyle;rounded=0;orthogonalLoop=1;jettySize=auto;html=1;" parent="1" source="qKqS4N5rRysT0K1ulYNM-187" target="qKqS4N5rRysT0K1ulYNM-189" edge="1">
          <mxGeometry relative="1" as="geometry" />
        </mxCell>
        <mxCell id="qKqS4N5rRysT0K1ulYNM-187" value="Список мероприятий" style="whiteSpace=wrap;html=1;" parent="1" vertex="1">
          <mxGeometry x="1509.38" y="245" width="120" height="60" as="geometry" />
        </mxCell>
        <mxCell id="qKqS4N5rRysT0K1ulYNM-189" value="TBD" style="text;html=1;strokeColor=none;fillColor=none;align=center;verticalAlign=middle;whiteSpace=wrap;rounded=0;" parent="1" vertex="1">
          <mxGeometry x="1650" y="260" width="60" height="30" as="geometry" />
        </mxCell>
        <mxCell id="o8hLT8fDDvnh0F-eYniM-1" value="user" style="shape=table;startSize=20;container=1;collapsible=0;childLayout=tableLayout;fontStyle=1;align=center;" vertex="1" parent="1">
          <mxGeometry x="352" y="-271" width="450" height="256" as="geometry" />
        </mxCell>
        <mxCell id="o8hLT8fDDvnh0F-eYniM-2" value="" style="shape=tableRow;horizontal=0;startSize=0;swimlaneHead=0;swimlaneBody=0;top=0;left=0;bottom=0;right=0;collapsible=0;dropTarget=0;fillColor=none;points=[[0,0.5],[1,0.5]];portConstraint=eastwest;" vertex="1" parent="o8hLT8fDDvnh0F-eYniM-1">
          <mxGeometry y="20" width="450" height="26" as="geometry" />
        </mxCell>
        <mxCell id="o8hLT8fDDvnh0F-eYniM-3" value="PK" style="shape=partialRectangle;html=1;whiteSpace=wrap;connectable=0;fillColor=none;top=0;left=0;bottom=0;right=0;overflow=hidden;" vertex="1" parent="o8hLT8fDDvnh0F-eYniM-2">
          <mxGeometry width="40" height="26" as="geometry">
            <mxRectangle width="40" height="26" as="alternateBounds" />
          </mxGeometry>
        </mxCell>
        <mxCell id="o8hLT8fDDvnh0F-eYniM-4" value="user_id" style="shape=partialRectangle;html=1;whiteSpace=wrap;connectable=0;fillColor=none;top=0;left=0;bottom=0;right=0;overflow=hidden;" vertex="1" parent="o8hLT8fDDvnh0F-eYniM-2">
          <mxGeometry x="40" width="110" height="26" as="geometry">
            <mxRectangle width="110" height="26" as="alternateBounds" />
          </mxGeometry>
        </mxCell>
        <mxCell id="o8hLT8fDDvnh0F-eYniM-5" value="&lt;span style=&quot;font-family: &amp;#34;jetbrains mono&amp;#34; , monospace ; font-size: 14.4px ; background-color: rgb(243 , 244 , 246)&quot;&gt;INT PRIMARY KEY AUTO_INCREMENT&lt;/span&gt;" style="shape=partialRectangle;html=1;whiteSpace=wrap;connectable=0;fillColor=none;top=0;left=0;bottom=0;right=0;overflow=hidden;" vertex="1" parent="o8hLT8fDDvnh0F-eYniM-2">
          <mxGeometry x="150" width="300" height="26" as="geometry">
            <mxRectangle width="300" height="26" as="alternateBounds" />
          </mxGeometry>
        </mxCell>
        <mxCell id="o8hLT8fDDvnh0F-eYniM-6" value="" style="shape=tableRow;horizontal=0;startSize=0;swimlaneHead=0;swimlaneBody=0;top=0;left=0;bottom=0;right=0;collapsible=0;dropTarget=0;fillColor=none;points=[[0,0.5],[1,0.5]];portConstraint=eastwest;" vertex="1" parent="o8hLT8fDDvnh0F-eYniM-1">
          <mxGeometry y="46" width="450" height="28" as="geometry" />
        </mxCell>
        <mxCell id="o8hLT8fDDvnh0F-eYniM-7" value="" style="shape=partialRectangle;html=1;whiteSpace=wrap;connectable=0;fillColor=none;top=0;left=0;bottom=0;right=0;overflow=hidden;" vertex="1" parent="o8hLT8fDDvnh0F-eYniM-6">
          <mxGeometry width="40" height="28" as="geometry">
            <mxRectangle width="40" height="28" as="alternateBounds" />
          </mxGeometry>
        </mxCell>
        <mxCell id="o8hLT8fDDvnh0F-eYniM-8" value="telegram_id" style="shape=partialRectangle;html=1;whiteSpace=wrap;connectable=0;fillColor=none;top=0;left=0;bottom=0;right=0;overflow=hidden;" vertex="1" parent="o8hLT8fDDvnh0F-eYniM-6">
          <mxGeometry x="40" width="110" height="28" as="geometry">
            <mxRectangle width="110" height="28" as="alternateBounds" />
          </mxGeometry>
        </mxCell>
        <mxCell id="o8hLT8fDDvnh0F-eYniM-9" value="INT" style="shape=partialRectangle;html=1;whiteSpace=wrap;connectable=0;fillColor=none;top=0;left=0;bottom=0;right=0;overflow=hidden;" vertex="1" parent="o8hLT8fDDvnh0F-eYniM-6">
          <mxGeometry x="150" width="300" height="28" as="geometry">
            <mxRectangle width="300" height="28" as="alternateBounds" />
          </mxGeometry>
        </mxCell>
        <mxCell id="o8hLT8fDDvnh0F-eYniM-10" value="" style="shape=tableRow;horizontal=0;startSize=0;swimlaneHead=0;swimlaneBody=0;top=0;left=0;bottom=0;right=0;collapsible=0;dropTarget=0;fillColor=none;points=[[0,0.5],[1,0.5]];portConstraint=eastwest;" vertex="1" parent="o8hLT8fDDvnh0F-eYniM-1">
          <mxGeometry y="74" width="450" height="26" as="geometry" />
        </mxCell>
        <mxCell id="o8hLT8fDDvnh0F-eYniM-11" value="FK" style="shape=partialRectangle;html=1;whiteSpace=wrap;connectable=0;fillColor=none;top=0;left=0;bottom=0;right=0;overflow=hidden;" vertex="1" parent="o8hLT8fDDvnh0F-eYniM-10">
          <mxGeometry width="40" height="26" as="geometry">
            <mxRectangle width="40" height="26" as="alternateBounds" />
          </mxGeometry>
        </mxCell>
        <mxCell id="o8hLT8fDDvnh0F-eYniM-12" value="rank_id" style="shape=partialRectangle;html=1;whiteSpace=wrap;connectable=0;fillColor=none;top=0;left=0;bottom=0;right=0;overflow=hidden;" vertex="1" parent="o8hLT8fDDvnh0F-eYniM-10">
          <mxGeometry x="40" width="110" height="26" as="geometry">
            <mxRectangle width="110" height="26" as="alternateBounds" />
          </mxGeometry>
        </mxCell>
        <mxCell id="o8hLT8fDDvnh0F-eYniM-13" value="" style="shape=partialRectangle;html=1;whiteSpace=wrap;connectable=0;fillColor=none;top=0;left=0;bottom=0;right=0;overflow=hidden;" vertex="1" parent="o8hLT8fDDvnh0F-eYniM-10">
          <mxGeometry x="150" width="300" height="26" as="geometry">
            <mxRectangle width="300" height="26" as="alternateBounds" />
          </mxGeometry>
        </mxCell>
        <mxCell id="o8hLT8fDDvnh0F-eYniM-47" style="shape=tableRow;horizontal=0;startSize=0;swimlaneHead=0;swimlaneBody=0;top=0;left=0;bottom=0;right=0;collapsible=0;dropTarget=0;fillColor=none;points=[[0,0.5],[1,0.5]];portConstraint=eastwest;" vertex="1" parent="o8hLT8fDDvnh0F-eYniM-1">
          <mxGeometry y="100" width="450" height="26" as="geometry" />
        </mxCell>
        <mxCell id="o8hLT8fDDvnh0F-eYniM-48" style="shape=partialRectangle;html=1;whiteSpace=wrap;connectable=0;fillColor=none;top=0;left=0;bottom=0;right=0;overflow=hidden;" vertex="1" parent="o8hLT8fDDvnh0F-eYniM-47">
          <mxGeometry width="40" height="26" as="geometry">
            <mxRectangle width="40" height="26" as="alternateBounds" />
          </mxGeometry>
        </mxCell>
        <mxCell id="o8hLT8fDDvnh0F-eYniM-49" value="mobile" style="shape=partialRectangle;html=1;whiteSpace=wrap;connectable=0;fillColor=none;top=0;left=0;bottom=0;right=0;overflow=hidden;" vertex="1" parent="o8hLT8fDDvnh0F-eYniM-47">
          <mxGeometry x="40" width="110" height="26" as="geometry">
            <mxRectangle width="110" height="26" as="alternateBounds" />
          </mxGeometry>
        </mxCell>
        <mxCell id="o8hLT8fDDvnh0F-eYniM-50" value="&lt;span&gt;VARCHAR&lt;/span&gt;" style="shape=partialRectangle;html=1;whiteSpace=wrap;connectable=0;fillColor=none;top=0;left=0;bottom=0;right=0;overflow=hidden;" vertex="1" parent="o8hLT8fDDvnh0F-eYniM-47">
          <mxGeometry x="150" width="300" height="26" as="geometry">
            <mxRectangle width="300" height="26" as="alternateBounds" />
          </mxGeometry>
        </mxCell>
        <mxCell id="o8hLT8fDDvnh0F-eYniM-51" style="shape=tableRow;horizontal=0;startSize=0;swimlaneHead=0;swimlaneBody=0;top=0;left=0;bottom=0;right=0;collapsible=0;dropTarget=0;fillColor=none;points=[[0,0.5],[1,0.5]];portConstraint=eastwest;" vertex="1" parent="o8hLT8fDDvnh0F-eYniM-1">
          <mxGeometry y="126" width="450" height="26" as="geometry" />
        </mxCell>
        <mxCell id="o8hLT8fDDvnh0F-eYniM-52" style="shape=partialRectangle;html=1;whiteSpace=wrap;connectable=0;fillColor=none;top=0;left=0;bottom=0;right=0;overflow=hidden;" vertex="1" parent="o8hLT8fDDvnh0F-eYniM-51">
          <mxGeometry width="40" height="26" as="geometry">
            <mxRectangle width="40" height="26" as="alternateBounds" />
          </mxGeometry>
        </mxCell>
        <mxCell id="o8hLT8fDDvnh0F-eYniM-53" value="name_surname" style="shape=partialRectangle;html=1;whiteSpace=wrap;connectable=0;fillColor=none;top=0;left=0;bottom=0;right=0;overflow=hidden;" vertex="1" parent="o8hLT8fDDvnh0F-eYniM-51">
          <mxGeometry x="40" width="110" height="26" as="geometry">
            <mxRectangle width="110" height="26" as="alternateBounds" />
          </mxGeometry>
        </mxCell>
        <mxCell id="o8hLT8fDDvnh0F-eYniM-54" value="VARCHA&lt;span style=&quot;color: rgb(0 , 0 , 0) ; font-family: &amp;#34;helvetica&amp;#34; ; font-size: 12px ; font-style: normal ; font-weight: 400 ; letter-spacing: normal ; text-align: center ; text-indent: 0px ; text-transform: none ; word-spacing: 0px ; background-color: rgb(248 , 249 , 250) ; display: inline ; float: none&quot;&gt;R&lt;/span&gt;" style="shape=partialRectangle;html=1;whiteSpace=wrap;connectable=0;fillColor=none;top=0;left=0;bottom=0;right=0;overflow=hidden;" vertex="1" parent="o8hLT8fDDvnh0F-eYniM-51">
          <mxGeometry x="150" width="300" height="26" as="geometry">
            <mxRectangle width="300" height="26" as="alternateBounds" />
          </mxGeometry>
        </mxCell>
        <mxCell id="o8hLT8fDDvnh0F-eYniM-55" style="shape=tableRow;horizontal=0;startSize=0;swimlaneHead=0;swimlaneBody=0;top=0;left=0;bottom=0;right=0;collapsible=0;dropTarget=0;fillColor=none;points=[[0,0.5],[1,0.5]];portConstraint=eastwest;" vertex="1" parent="o8hLT8fDDvnh0F-eYniM-1">
          <mxGeometry y="152" width="450" height="26" as="geometry" />
        </mxCell>
        <mxCell id="o8hLT8fDDvnh0F-eYniM-56" style="shape=partialRectangle;html=1;whiteSpace=wrap;connectable=0;fillColor=none;top=0;left=0;bottom=0;right=0;overflow=hidden;" vertex="1" parent="o8hLT8fDDvnh0F-eYniM-55">
          <mxGeometry width="40" height="26" as="geometry">
            <mxRectangle width="40" height="26" as="alternateBounds" />
          </mxGeometry>
        </mxCell>
        <mxCell id="o8hLT8fDDvnh0F-eYniM-57" value="short_name" style="shape=partialRectangle;html=1;whiteSpace=wrap;connectable=0;fillColor=none;top=0;left=0;bottom=0;right=0;overflow=hidden;" vertex="1" parent="o8hLT8fDDvnh0F-eYniM-55">
          <mxGeometry x="40" width="110" height="26" as="geometry">
            <mxRectangle width="110" height="26" as="alternateBounds" />
          </mxGeometry>
        </mxCell>
        <mxCell id="o8hLT8fDDvnh0F-eYniM-58" value="VARCHA&lt;span&gt;R&lt;/span&gt;" style="shape=partialRectangle;html=1;whiteSpace=wrap;connectable=0;fillColor=none;top=0;left=0;bottom=0;right=0;overflow=hidden;" vertex="1" parent="o8hLT8fDDvnh0F-eYniM-55">
          <mxGeometry x="150" width="300" height="26" as="geometry">
            <mxRectangle width="300" height="26" as="alternateBounds" />
          </mxGeometry>
        </mxCell>
        <mxCell id="o8hLT8fDDvnh0F-eYniM-59" style="shape=tableRow;horizontal=0;startSize=0;swimlaneHead=0;swimlaneBody=0;top=0;left=0;bottom=0;right=0;collapsible=0;dropTarget=0;fillColor=none;points=[[0,0.5],[1,0.5]];portConstraint=eastwest;" vertex="1" parent="o8hLT8fDDvnh0F-eYniM-1">
          <mxGeometry y="178" width="450" height="26" as="geometry" />
        </mxCell>
        <mxCell id="o8hLT8fDDvnh0F-eYniM-60" style="shape=partialRectangle;html=1;whiteSpace=wrap;connectable=0;fillColor=none;top=0;left=0;bottom=0;right=0;overflow=hidden;" vertex="1" parent="o8hLT8fDDvnh0F-eYniM-59">
          <mxGeometry width="40" height="26" as="geometry">
            <mxRectangle width="40" height="26" as="alternateBounds" />
          </mxGeometry>
        </mxCell>
        <mxCell id="o8hLT8fDDvnh0F-eYniM-61" value="car_info" style="shape=partialRectangle;html=1;whiteSpace=wrap;connectable=0;fillColor=none;top=0;left=0;bottom=0;right=0;overflow=hidden;" vertex="1" parent="o8hLT8fDDvnh0F-eYniM-59">
          <mxGeometry x="40" width="110" height="26" as="geometry">
            <mxRectangle width="110" height="26" as="alternateBounds" />
          </mxGeometry>
        </mxCell>
        <mxCell id="o8hLT8fDDvnh0F-eYniM-62" value="VARCHA&lt;span&gt;R&lt;/span&gt;" style="shape=partialRectangle;html=1;whiteSpace=wrap;connectable=0;fillColor=none;top=0;left=0;bottom=0;right=0;overflow=hidden;" vertex="1" parent="o8hLT8fDDvnh0F-eYniM-59">
          <mxGeometry x="150" width="300" height="26" as="geometry">
            <mxRectangle width="300" height="26" as="alternateBounds" />
          </mxGeometry>
        </mxCell>
        <mxCell id="o8hLT8fDDvnh0F-eYniM-63" style="shape=tableRow;horizontal=0;startSize=0;swimlaneHead=0;swimlaneBody=0;top=0;left=0;bottom=0;right=0;collapsible=0;dropTarget=0;fillColor=none;points=[[0,0.5],[1,0.5]];portConstraint=eastwest;" vertex="1" parent="o8hLT8fDDvnh0F-eYniM-1">
          <mxGeometry y="204" width="450" height="26" as="geometry" />
        </mxCell>
        <mxCell id="o8hLT8fDDvnh0F-eYniM-64" style="shape=partialRectangle;html=1;whiteSpace=wrap;connectable=0;fillColor=none;top=0;left=0;bottom=0;right=0;overflow=hidden;" vertex="1" parent="o8hLT8fDDvnh0F-eYniM-63">
          <mxGeometry width="40" height="26" as="geometry">
            <mxRectangle width="40" height="26" as="alternateBounds" />
          </mxGeometry>
        </mxCell>
        <mxCell id="o8hLT8fDDvnh0F-eYniM-65" value="email" style="shape=partialRectangle;html=1;whiteSpace=wrap;connectable=0;fillColor=none;top=0;left=0;bottom=0;right=0;overflow=hidden;" vertex="1" parent="o8hLT8fDDvnh0F-eYniM-63">
          <mxGeometry x="40" width="110" height="26" as="geometry">
            <mxRectangle width="110" height="26" as="alternateBounds" />
          </mxGeometry>
        </mxCell>
        <mxCell id="o8hLT8fDDvnh0F-eYniM-66" value="VARCHA&lt;span&gt;R&lt;/span&gt;" style="shape=partialRectangle;html=1;whiteSpace=wrap;connectable=0;fillColor=none;top=0;left=0;bottom=0;right=0;overflow=hidden;" vertex="1" parent="o8hLT8fDDvnh0F-eYniM-63">
          <mxGeometry x="150" width="300" height="26" as="geometry">
            <mxRectangle width="300" height="26" as="alternateBounds" />
          </mxGeometry>
        </mxCell>
        <mxCell id="o8hLT8fDDvnh0F-eYniM-67" style="shape=tableRow;horizontal=0;startSize=0;swimlaneHead=0;swimlaneBody=0;top=0;left=0;bottom=0;right=0;collapsible=0;dropTarget=0;fillColor=none;points=[[0,0.5],[1,0.5]];portConstraint=eastwest;" vertex="1" parent="o8hLT8fDDvnh0F-eYniM-1">
          <mxGeometry y="230" width="450" height="26" as="geometry" />
        </mxCell>
        <mxCell id="o8hLT8fDDvnh0F-eYniM-68" style="shape=partialRectangle;html=1;whiteSpace=wrap;connectable=0;fillColor=none;top=0;left=0;bottom=0;right=0;overflow=hidden;" vertex="1" parent="o8hLT8fDDvnh0F-eYniM-67">
          <mxGeometry width="40" height="26" as="geometry">
            <mxRectangle width="40" height="26" as="alternateBounds" />
          </mxGeometry>
        </mxCell>
        <mxCell id="o8hLT8fDDvnh0F-eYniM-69" style="shape=partialRectangle;html=1;whiteSpace=wrap;connectable=0;fillColor=none;top=0;left=0;bottom=0;right=0;overflow=hidden;" vertex="1" parent="o8hLT8fDDvnh0F-eYniM-67">
          <mxGeometry x="40" width="110" height="26" as="geometry">
            <mxRectangle width="110" height="26" as="alternateBounds" />
          </mxGeometry>
        </mxCell>
        <mxCell id="o8hLT8fDDvnh0F-eYniM-70" style="shape=partialRectangle;html=1;whiteSpace=wrap;connectable=0;fillColor=none;top=0;left=0;bottom=0;right=0;overflow=hidden;" vertex="1" parent="o8hLT8fDDvnh0F-eYniM-67">
          <mxGeometry x="150" width="300" height="26" as="geometry">
            <mxRectangle width="300" height="26" as="alternateBounds" />
          </mxGeometry>
        </mxCell>
        <mxCell id="o8hLT8fDDvnh0F-eYniM-15" value="rank" style="shape=table;startSize=20;container=1;collapsible=0;childLayout=tableLayout;fontStyle=1;align=center;" vertex="1" parent="1">
          <mxGeometry x="352.5" y="-550" width="450" height="74" as="geometry" />
        </mxCell>
        <mxCell id="o8hLT8fDDvnh0F-eYniM-16" value="" style="shape=tableRow;horizontal=0;startSize=0;swimlaneHead=0;swimlaneBody=0;top=0;left=0;bottom=0;right=0;collapsible=0;dropTarget=0;fillColor=none;points=[[0,0.5],[1,0.5]];portConstraint=eastwest;" vertex="1" parent="o8hLT8fDDvnh0F-eYniM-15">
          <mxGeometry y="20" width="450" height="26" as="geometry" />
        </mxCell>
        <mxCell id="o8hLT8fDDvnh0F-eYniM-17" value="PK" style="shape=partialRectangle;html=1;whiteSpace=wrap;connectable=0;fillColor=none;top=0;left=0;bottom=0;right=0;overflow=hidden;" vertex="1" parent="o8hLT8fDDvnh0F-eYniM-16">
          <mxGeometry width="40" height="26" as="geometry">
            <mxRectangle width="40" height="26" as="alternateBounds" />
          </mxGeometry>
        </mxCell>
        <mxCell id="o8hLT8fDDvnh0F-eYniM-18" value="rank_id" style="shape=partialRectangle;html=1;whiteSpace=wrap;connectable=0;fillColor=none;top=0;left=0;bottom=0;right=0;overflow=hidden;" vertex="1" parent="o8hLT8fDDvnh0F-eYniM-16">
          <mxGeometry x="40" width="110" height="26" as="geometry">
            <mxRectangle width="110" height="26" as="alternateBounds" />
          </mxGeometry>
        </mxCell>
        <mxCell id="o8hLT8fDDvnh0F-eYniM-19" value="&lt;span style=&quot;font-family: &amp;#34;jetbrains mono&amp;#34; , monospace ; font-size: 14.4px ; background-color: rgb(243 , 244 , 246)&quot;&gt;INT PRIMARY KEY AUTO_INCREMENT&lt;/span&gt;" style="shape=partialRectangle;html=1;whiteSpace=wrap;connectable=0;fillColor=none;top=0;left=0;bottom=0;right=0;overflow=hidden;" vertex="1" parent="o8hLT8fDDvnh0F-eYniM-16">
          <mxGeometry x="150" width="300" height="26" as="geometry">
            <mxRectangle width="300" height="26" as="alternateBounds" />
          </mxGeometry>
        </mxCell>
        <mxCell id="o8hLT8fDDvnh0F-eYniM-20" value="" style="shape=tableRow;horizontal=0;startSize=0;swimlaneHead=0;swimlaneBody=0;top=0;left=0;bottom=0;right=0;collapsible=0;dropTarget=0;fillColor=none;points=[[0,0.5],[1,0.5]];portConstraint=eastwest;" vertex="1" parent="o8hLT8fDDvnh0F-eYniM-15">
          <mxGeometry y="46" width="450" height="28" as="geometry" />
        </mxCell>
        <mxCell id="o8hLT8fDDvnh0F-eYniM-21" value="" style="shape=partialRectangle;html=1;whiteSpace=wrap;connectable=0;fillColor=none;top=0;left=0;bottom=0;right=0;overflow=hidden;" vertex="1" parent="o8hLT8fDDvnh0F-eYniM-20">
          <mxGeometry width="40" height="28" as="geometry">
            <mxRectangle width="40" height="28" as="alternateBounds" />
          </mxGeometry>
        </mxCell>
        <mxCell id="o8hLT8fDDvnh0F-eYniM-22" value="rank_name" style="shape=partialRectangle;html=1;whiteSpace=wrap;connectable=0;fillColor=none;top=0;left=0;bottom=0;right=0;overflow=hidden;" vertex="1" parent="o8hLT8fDDvnh0F-eYniM-20">
          <mxGeometry x="40" width="110" height="28" as="geometry">
            <mxRectangle width="110" height="28" as="alternateBounds" />
          </mxGeometry>
        </mxCell>
        <mxCell id="o8hLT8fDDvnh0F-eYniM-23" value="VARCHAR(10)" style="shape=partialRectangle;html=1;whiteSpace=wrap;connectable=0;fillColor=none;top=0;left=0;bottom=0;right=0;overflow=hidden;" vertex="1" parent="o8hLT8fDDvnh0F-eYniM-20">
          <mxGeometry x="150" width="300" height="28" as="geometry">
            <mxRectangle width="300" height="28" as="alternateBounds" />
          </mxGeometry>
        </mxCell>
        <mxCell id="o8hLT8fDDvnh0F-eYniM-71" value="user_rank" style="shape=table;startSize=20;container=1;collapsible=0;childLayout=tableLayout;fontStyle=1;align=center;" vertex="1" parent="1">
          <mxGeometry x="352.5" y="-420" width="450" height="100" as="geometry" />
        </mxCell>
        <mxCell id="o8hLT8fDDvnh0F-eYniM-72" value="" style="shape=tableRow;horizontal=0;startSize=0;swimlaneHead=0;swimlaneBody=0;top=0;left=0;bottom=0;right=0;collapsible=0;dropTarget=0;fillColor=none;points=[[0,0.5],[1,0.5]];portConstraint=eastwest;" vertex="1" parent="o8hLT8fDDvnh0F-eYniM-71">
          <mxGeometry y="20" width="450" height="26" as="geometry" />
        </mxCell>
        <mxCell id="o8hLT8fDDvnh0F-eYniM-73" value="PK" style="shape=partialRectangle;html=1;whiteSpace=wrap;connectable=0;fillColor=none;top=0;left=0;bottom=0;right=0;overflow=hidden;" vertex="1" parent="o8hLT8fDDvnh0F-eYniM-72">
          <mxGeometry width="40" height="26" as="geometry">
            <mxRectangle width="40" height="26" as="alternateBounds" />
          </mxGeometry>
        </mxCell>
        <mxCell id="o8hLT8fDDvnh0F-eYniM-74" value="user_rank_id" style="shape=partialRectangle;html=1;whiteSpace=wrap;connectable=0;fillColor=none;top=0;left=0;bottom=0;right=0;overflow=hidden;" vertex="1" parent="o8hLT8fDDvnh0F-eYniM-72">
          <mxGeometry x="40" width="110" height="26" as="geometry">
            <mxRectangle width="110" height="26" as="alternateBounds" />
          </mxGeometry>
        </mxCell>
        <mxCell id="o8hLT8fDDvnh0F-eYniM-75" value="&lt;span style=&quot;font-family: &amp;#34;jetbrains mono&amp;#34; , monospace ; font-size: 14.4px ; background-color: rgb(243 , 244 , 246)&quot;&gt;INT PRIMARY KEY AUTO_INCREMENT&lt;/span&gt;" style="shape=partialRectangle;html=1;whiteSpace=wrap;connectable=0;fillColor=none;top=0;left=0;bottom=0;right=0;overflow=hidden;" vertex="1" parent="o8hLT8fDDvnh0F-eYniM-72">
          <mxGeometry x="150" width="300" height="26" as="geometry">
            <mxRectangle width="300" height="26" as="alternateBounds" />
          </mxGeometry>
        </mxCell>
        <mxCell id="o8hLT8fDDvnh0F-eYniM-80" style="shape=tableRow;horizontal=0;startSize=0;swimlaneHead=0;swimlaneBody=0;top=0;left=0;bottom=0;right=0;collapsible=0;dropTarget=0;fillColor=none;points=[[0,0.5],[1,0.5]];portConstraint=eastwest;" vertex="1" parent="o8hLT8fDDvnh0F-eYniM-71">
          <mxGeometry y="46" width="450" height="26" as="geometry" />
        </mxCell>
        <mxCell id="o8hLT8fDDvnh0F-eYniM-81" value="FK" style="shape=partialRectangle;html=1;whiteSpace=wrap;connectable=0;fillColor=none;top=0;left=0;bottom=0;right=0;overflow=hidden;rowspan=2;colspan=1;" vertex="1" parent="o8hLT8fDDvnh0F-eYniM-80">
          <mxGeometry width="40" height="54" as="geometry">
            <mxRectangle width="40" height="26" as="alternateBounds" />
          </mxGeometry>
        </mxCell>
        <mxCell id="o8hLT8fDDvnh0F-eYniM-82" value="&lt;span style=&quot;color: rgb(0 , 0 , 0) ; font-family: &amp;#34;helvetica&amp;#34; ; font-size: 12px ; font-style: normal ; font-weight: 400 ; letter-spacing: normal ; text-align: center ; text-indent: 0px ; text-transform: none ; word-spacing: 0px ; background-color: rgb(248 , 249 , 250) ; display: inline ; float: none&quot;&gt;rank_id&lt;/span&gt;" style="shape=partialRectangle;html=1;whiteSpace=wrap;connectable=0;fillColor=none;top=0;left=0;bottom=0;right=0;overflow=hidden;" vertex="1" parent="o8hLT8fDDvnh0F-eYniM-80">
          <mxGeometry x="40" width="110" height="26" as="geometry">
            <mxRectangle width="110" height="26" as="alternateBounds" />
          </mxGeometry>
        </mxCell>
        <mxCell id="o8hLT8fDDvnh0F-eYniM-83" style="shape=partialRectangle;html=1;whiteSpace=wrap;connectable=0;fillColor=none;top=0;left=0;bottom=0;right=0;overflow=hidden;" vertex="1" parent="o8hLT8fDDvnh0F-eYniM-80">
          <mxGeometry x="150" width="300" height="26" as="geometry">
            <mxRectangle width="300" height="26" as="alternateBounds" />
          </mxGeometry>
        </mxCell>
        <mxCell id="o8hLT8fDDvnh0F-eYniM-76" value="" style="shape=tableRow;horizontal=0;startSize=0;swimlaneHead=0;swimlaneBody=0;top=0;left=0;bottom=0;right=0;collapsible=0;dropTarget=0;fillColor=none;points=[[0,0.5],[1,0.5]];portConstraint=eastwest;" vertex="1" parent="o8hLT8fDDvnh0F-eYniM-71">
          <mxGeometry y="72" width="450" height="28" as="geometry" />
        </mxCell>
        <mxCell id="o8hLT8fDDvnh0F-eYniM-77" value="FK" style="shape=partialRectangle;html=1;whiteSpace=wrap;connectable=0;fillColor=none;top=0;left=0;bottom=0;right=0;overflow=hidden;" vertex="1" visible="0" parent="o8hLT8fDDvnh0F-eYniM-76">
          <mxGeometry width="40" height="28" as="geometry">
            <mxRectangle width="40" height="28" as="alternateBounds" />
          </mxGeometry>
        </mxCell>
        <mxCell id="o8hLT8fDDvnh0F-eYniM-78" value="user_id" style="shape=partialRectangle;html=1;whiteSpace=wrap;connectable=0;fillColor=none;top=0;left=0;bottom=0;right=0;overflow=hidden;" vertex="1" parent="o8hLT8fDDvnh0F-eYniM-76">
          <mxGeometry x="40" width="110" height="28" as="geometry">
            <mxRectangle width="110" height="28" as="alternateBounds" />
          </mxGeometry>
        </mxCell>
        <mxCell id="o8hLT8fDDvnh0F-eYniM-79" value="" style="shape=partialRectangle;html=1;whiteSpace=wrap;connectable=0;fillColor=none;top=0;left=0;bottom=0;right=0;overflow=hidden;" vertex="1" parent="o8hLT8fDDvnh0F-eYniM-76">
          <mxGeometry x="150" width="300" height="28" as="geometry">
            <mxRectangle width="300" height="28" as="alternateBounds" />
          </mxGeometry>
        </mxCell>
        <mxCell id="o8hLT8fDDvnh0F-eYniM-89" style="edgeStyle=orthogonalEdgeStyle;rounded=0;orthogonalLoop=1;jettySize=auto;html=1;exitX=0;exitY=0.5;exitDx=0;exitDy=0;entryX=0;entryY=0.5;entryDx=0;entryDy=0;" edge="1" parent="1" source="o8hLT8fDDvnh0F-eYniM-2" target="o8hLT8fDDvnh0F-eYniM-76">
          <mxGeometry relative="1" as="geometry" />
        </mxCell>
        <mxCell id="o8hLT8fDDvnh0F-eYniM-90" style="edgeStyle=orthogonalEdgeStyle;rounded=0;orthogonalLoop=1;jettySize=auto;html=1;exitX=0;exitY=0.5;exitDx=0;exitDy=0;entryX=0;entryY=0.5;entryDx=0;entryDy=0;" edge="1" parent="1" source="o8hLT8fDDvnh0F-eYniM-20" target="o8hLT8fDDvnh0F-eYniM-80">
          <mxGeometry relative="1" as="geometry" />
        </mxCell>
        <mxCell id="o8hLT8fDDvnh0F-eYniM-91" value="rank" style="shape=table;startSize=30;container=1;collapsible=1;childLayout=tableLayout;fixedRows=1;rowLines=0;fontStyle=1;align=center;resizeLast=1;" vertex="1" parent="1">
          <mxGeometry x="850" y="-550" width="180" height="100" as="geometry">
            <mxRectangle x="850" y="-550" width="60" height="30" as="alternateBounds" />
          </mxGeometry>
        </mxCell>
        <mxCell id="o8hLT8fDDvnh0F-eYniM-92" value="" style="shape=tableRow;horizontal=0;startSize=0;swimlaneHead=0;swimlaneBody=0;fillColor=none;collapsible=0;dropTarget=0;points=[[0,0.5],[1,0.5]];portConstraint=eastwest;top=0;left=0;right=0;bottom=1;" vertex="1" parent="o8hLT8fDDvnh0F-eYniM-91">
          <mxGeometry y="30" width="180" height="30" as="geometry" />
        </mxCell>
        <mxCell id="o8hLT8fDDvnh0F-eYniM-93" value="PK" style="shape=partialRectangle;connectable=0;fillColor=none;top=0;left=0;bottom=0;right=0;fontStyle=1;overflow=hidden;" vertex="1" parent="o8hLT8fDDvnh0F-eYniM-92">
          <mxGeometry width="30" height="30" as="geometry">
            <mxRectangle width="30" height="30" as="alternateBounds" />
          </mxGeometry>
        </mxCell>
        <mxCell id="o8hLT8fDDvnh0F-eYniM-94" value="rank_id" style="shape=partialRectangle;connectable=0;fillColor=none;top=0;left=0;bottom=0;right=0;align=left;spacingLeft=6;fontStyle=5;overflow=hidden;" vertex="1" parent="o8hLT8fDDvnh0F-eYniM-92">
          <mxGeometry x="30" width="150" height="30" as="geometry">
            <mxRectangle width="150" height="30" as="alternateBounds" />
          </mxGeometry>
        </mxCell>
        <mxCell id="o8hLT8fDDvnh0F-eYniM-95" value="" style="shape=tableRow;horizontal=0;startSize=0;swimlaneHead=0;swimlaneBody=0;fillColor=none;collapsible=0;dropTarget=0;points=[[0,0.5],[1,0.5]];portConstraint=eastwest;top=0;left=0;right=0;bottom=0;" vertex="1" parent="o8hLT8fDDvnh0F-eYniM-91">
          <mxGeometry y="60" width="180" height="30" as="geometry" />
        </mxCell>
        <mxCell id="o8hLT8fDDvnh0F-eYniM-96" value="" style="shape=partialRectangle;connectable=0;fillColor=none;top=0;left=0;bottom=0;right=0;editable=1;overflow=hidden;" vertex="1" parent="o8hLT8fDDvnh0F-eYniM-95">
          <mxGeometry width="30" height="30" as="geometry">
            <mxRectangle width="30" height="30" as="alternateBounds" />
          </mxGeometry>
        </mxCell>
        <mxCell id="o8hLT8fDDvnh0F-eYniM-97" value="rank_name" style="shape=partialRectangle;connectable=0;fillColor=none;top=0;left=0;bottom=0;right=0;align=left;spacingLeft=6;overflow=hidden;" vertex="1" parent="o8hLT8fDDvnh0F-eYniM-95">
          <mxGeometry x="30" width="150" height="30" as="geometry">
            <mxRectangle width="150" height="30" as="alternateBounds" />
          </mxGeometry>
        </mxCell>
        <mxCell id="o8hLT8fDDvnh0F-eYniM-104" value="user" style="shape=table;startSize=30;container=1;collapsible=1;childLayout=tableLayout;fixedRows=1;rowLines=0;fontStyle=1;align=center;resizeLast=1;" vertex="1" parent="1">
          <mxGeometry x="890" y="-275.5" width="180" height="281" as="geometry">
            <mxRectangle x="890" y="-275.5" width="60" height="30" as="alternateBounds" />
          </mxGeometry>
        </mxCell>
        <mxCell id="o8hLT8fDDvnh0F-eYniM-105" value="" style="shape=tableRow;horizontal=0;startSize=0;swimlaneHead=0;swimlaneBody=0;fillColor=none;collapsible=0;dropTarget=0;points=[[0,0.5],[1,0.5]];portConstraint=eastwest;top=0;left=0;right=0;bottom=1;" vertex="1" parent="o8hLT8fDDvnh0F-eYniM-104">
          <mxGeometry y="30" width="180" height="30" as="geometry" />
        </mxCell>
        <mxCell id="o8hLT8fDDvnh0F-eYniM-106" value="PK" style="shape=partialRectangle;connectable=0;fillColor=none;top=0;left=0;bottom=0;right=0;fontStyle=1;overflow=hidden;" vertex="1" parent="o8hLT8fDDvnh0F-eYniM-105">
          <mxGeometry width="30" height="30" as="geometry">
            <mxRectangle width="30" height="30" as="alternateBounds" />
          </mxGeometry>
        </mxCell>
        <mxCell id="o8hLT8fDDvnh0F-eYniM-107" value="user_id" style="shape=partialRectangle;connectable=0;fillColor=none;top=0;left=0;bottom=0;right=0;align=left;spacingLeft=6;fontStyle=5;overflow=hidden;" vertex="1" parent="o8hLT8fDDvnh0F-eYniM-105">
          <mxGeometry x="30" width="150" height="30" as="geometry">
            <mxRectangle width="150" height="30" as="alternateBounds" />
          </mxGeometry>
        </mxCell>
        <mxCell id="o8hLT8fDDvnh0F-eYniM-108" value="" style="shape=tableRow;horizontal=0;startSize=0;swimlaneHead=0;swimlaneBody=0;fillColor=none;collapsible=0;dropTarget=0;points=[[0,0.5],[1,0.5]];portConstraint=eastwest;top=0;left=0;right=0;bottom=0;" vertex="1" parent="o8hLT8fDDvnh0F-eYniM-104">
          <mxGeometry y="60" width="180" height="30" as="geometry" />
        </mxCell>
        <mxCell id="o8hLT8fDDvnh0F-eYniM-109" value="" style="shape=partialRectangle;connectable=0;fillColor=none;top=0;left=0;bottom=0;right=0;editable=1;overflow=hidden;" vertex="1" parent="o8hLT8fDDvnh0F-eYniM-108">
          <mxGeometry width="30" height="30" as="geometry">
            <mxRectangle width="30" height="30" as="alternateBounds" />
          </mxGeometry>
        </mxCell>
        <mxCell id="o8hLT8fDDvnh0F-eYniM-110" value="telegram_id" style="shape=partialRectangle;connectable=0;fillColor=none;top=0;left=0;bottom=0;right=0;align=left;spacingLeft=6;overflow=hidden;" vertex="1" parent="o8hLT8fDDvnh0F-eYniM-108">
          <mxGeometry x="30" width="150" height="30" as="geometry">
            <mxRectangle width="150" height="30" as="alternateBounds" />
          </mxGeometry>
        </mxCell>
        <mxCell id="o8hLT8fDDvnh0F-eYniM-123" style="shape=tableRow;horizontal=0;startSize=0;swimlaneHead=0;swimlaneBody=0;fillColor=none;collapsible=0;dropTarget=0;points=[[0,0.5],[1,0.5]];portConstraint=eastwest;top=0;left=0;right=0;bottom=0;" vertex="1" parent="o8hLT8fDDvnh0F-eYniM-104">
          <mxGeometry y="90" width="180" height="30" as="geometry" />
        </mxCell>
        <mxCell id="o8hLT8fDDvnh0F-eYniM-124" style="shape=partialRectangle;connectable=0;fillColor=none;top=0;left=0;bottom=0;right=0;editable=1;overflow=hidden;" vertex="1" parent="o8hLT8fDDvnh0F-eYniM-123">
          <mxGeometry width="30" height="30" as="geometry">
            <mxRectangle width="30" height="30" as="alternateBounds" />
          </mxGeometry>
        </mxCell>
        <mxCell id="o8hLT8fDDvnh0F-eYniM-125" style="shape=partialRectangle;connectable=0;fillColor=none;top=0;left=0;bottom=0;right=0;align=left;spacingLeft=6;overflow=hidden;" vertex="1" parent="o8hLT8fDDvnh0F-eYniM-123">
          <mxGeometry x="30" width="150" height="30" as="geometry">
            <mxRectangle width="150" height="30" as="alternateBounds" />
          </mxGeometry>
        </mxCell>
        <mxCell id="o8hLT8fDDvnh0F-eYniM-120" style="shape=tableRow;horizontal=0;startSize=0;swimlaneHead=0;swimlaneBody=0;fillColor=none;collapsible=0;dropTarget=0;points=[[0,0.5],[1,0.5]];portConstraint=eastwest;top=0;left=0;right=0;bottom=0;" vertex="1" parent="o8hLT8fDDvnh0F-eYniM-104">
          <mxGeometry y="120" width="180" height="30" as="geometry" />
        </mxCell>
        <mxCell id="o8hLT8fDDvnh0F-eYniM-121" style="shape=partialRectangle;connectable=0;fillColor=none;top=0;left=0;bottom=0;right=0;editable=1;overflow=hidden;" vertex="1" parent="o8hLT8fDDvnh0F-eYniM-120">
          <mxGeometry width="30" height="30" as="geometry">
            <mxRectangle width="30" height="30" as="alternateBounds" />
          </mxGeometry>
        </mxCell>
        <mxCell id="o8hLT8fDDvnh0F-eYniM-122" value="mobile" style="shape=partialRectangle;connectable=0;fillColor=none;top=0;left=0;bottom=0;right=0;align=left;spacingLeft=6;overflow=hidden;" vertex="1" parent="o8hLT8fDDvnh0F-eYniM-120">
          <mxGeometry x="30" width="150" height="30" as="geometry">
            <mxRectangle width="150" height="30" as="alternateBounds" />
          </mxGeometry>
        </mxCell>
        <mxCell id="o8hLT8fDDvnh0F-eYniM-117" style="shape=tableRow;horizontal=0;startSize=0;swimlaneHead=0;swimlaneBody=0;fillColor=none;collapsible=0;dropTarget=0;points=[[0,0.5],[1,0.5]];portConstraint=eastwest;top=0;left=0;right=0;bottom=0;" vertex="1" parent="o8hLT8fDDvnh0F-eYniM-104">
          <mxGeometry y="150" width="180" height="30" as="geometry" />
        </mxCell>
        <mxCell id="o8hLT8fDDvnh0F-eYniM-118" style="shape=partialRectangle;connectable=0;fillColor=none;top=0;left=0;bottom=0;right=0;editable=1;overflow=hidden;" vertex="1" parent="o8hLT8fDDvnh0F-eYniM-117">
          <mxGeometry width="30" height="30" as="geometry">
            <mxRectangle width="30" height="30" as="alternateBounds" />
          </mxGeometry>
        </mxCell>
        <mxCell id="o8hLT8fDDvnh0F-eYniM-119" value="name_surname" style="shape=partialRectangle;connectable=0;fillColor=none;top=0;left=0;bottom=0;right=0;align=left;spacingLeft=6;overflow=hidden;" vertex="1" parent="o8hLT8fDDvnh0F-eYniM-117">
          <mxGeometry x="30" width="150" height="30" as="geometry">
            <mxRectangle width="150" height="30" as="alternateBounds" />
          </mxGeometry>
        </mxCell>
        <mxCell id="o8hLT8fDDvnh0F-eYniM-114" style="shape=tableRow;horizontal=0;startSize=0;swimlaneHead=0;swimlaneBody=0;fillColor=none;collapsible=0;dropTarget=0;points=[[0,0.5],[1,0.5]];portConstraint=eastwest;top=0;left=0;right=0;bottom=0;" vertex="1" parent="o8hLT8fDDvnh0F-eYniM-104">
          <mxGeometry y="180" width="180" height="30" as="geometry" />
        </mxCell>
        <mxCell id="o8hLT8fDDvnh0F-eYniM-115" style="shape=partialRectangle;connectable=0;fillColor=none;top=0;left=0;bottom=0;right=0;editable=1;overflow=hidden;" vertex="1" parent="o8hLT8fDDvnh0F-eYniM-114">
          <mxGeometry width="30" height="30" as="geometry">
            <mxRectangle width="30" height="30" as="alternateBounds" />
          </mxGeometry>
        </mxCell>
        <mxCell id="o8hLT8fDDvnh0F-eYniM-116" value="short_name" style="shape=partialRectangle;connectable=0;fillColor=none;top=0;left=0;bottom=0;right=0;align=left;spacingLeft=6;overflow=hidden;" vertex="1" parent="o8hLT8fDDvnh0F-eYniM-114">
          <mxGeometry x="30" width="150" height="30" as="geometry">
            <mxRectangle width="150" height="30" as="alternateBounds" />
          </mxGeometry>
        </mxCell>
        <mxCell id="o8hLT8fDDvnh0F-eYniM-111" style="shape=tableRow;horizontal=0;startSize=0;swimlaneHead=0;swimlaneBody=0;fillColor=none;collapsible=0;dropTarget=0;points=[[0,0.5],[1,0.5]];portConstraint=eastwest;top=0;left=0;right=0;bottom=0;" vertex="1" parent="o8hLT8fDDvnh0F-eYniM-104">
          <mxGeometry y="210" width="180" height="31" as="geometry" />
        </mxCell>
        <mxCell id="o8hLT8fDDvnh0F-eYniM-112" style="shape=partialRectangle;connectable=0;fillColor=none;top=0;left=0;bottom=0;right=0;editable=1;overflow=hidden;" vertex="1" parent="o8hLT8fDDvnh0F-eYniM-111">
          <mxGeometry width="30" height="31" as="geometry">
            <mxRectangle width="30" height="31" as="alternateBounds" />
          </mxGeometry>
        </mxCell>
        <mxCell id="o8hLT8fDDvnh0F-eYniM-113" value="car_info" style="shape=partialRectangle;connectable=0;fillColor=none;top=0;left=0;bottom=0;right=0;align=left;spacingLeft=6;overflow=hidden;" vertex="1" parent="o8hLT8fDDvnh0F-eYniM-111">
          <mxGeometry x="30" width="150" height="31" as="geometry">
            <mxRectangle width="150" height="31" as="alternateBounds" />
          </mxGeometry>
        </mxCell>
        <mxCell id="o8hLT8fDDvnh0F-eYniM-126" style="shape=tableRow;horizontal=0;startSize=0;swimlaneHead=0;swimlaneBody=0;fillColor=none;collapsible=0;dropTarget=0;points=[[0,0.5],[1,0.5]];portConstraint=eastwest;top=0;left=0;right=0;bottom=0;" vertex="1" parent="o8hLT8fDDvnh0F-eYniM-104">
          <mxGeometry y="241" width="180" height="30" as="geometry" />
        </mxCell>
        <mxCell id="o8hLT8fDDvnh0F-eYniM-127" style="shape=partialRectangle;connectable=0;fillColor=none;top=0;left=0;bottom=0;right=0;editable=1;overflow=hidden;" vertex="1" parent="o8hLT8fDDvnh0F-eYniM-126">
          <mxGeometry width="30" height="30" as="geometry">
            <mxRectangle width="30" height="30" as="alternateBounds" />
          </mxGeometry>
        </mxCell>
        <mxCell id="o8hLT8fDDvnh0F-eYniM-128" value="email" style="shape=partialRectangle;connectable=0;fillColor=none;top=0;left=0;bottom=0;right=0;align=left;spacingLeft=6;overflow=hidden;" vertex="1" parent="o8hLT8fDDvnh0F-eYniM-126">
          <mxGeometry x="30" width="150" height="30" as="geometry">
            <mxRectangle width="150" height="30" as="alternateBounds" />
          </mxGeometry>
        </mxCell>
      </root>
    </mxGraphModel>
  </diagram>
</mxfile>
